<svg width="138" height="120" viewBox="0 0 138 120" fill="none" xmlns="http://www.w3.org/2000/svg">
<g clip-path="url(#clip0_7_9)">
<path d="M80.4755 95.4676C80.4755 115.833 21.6763 64.036 25.8514 49.792C30.0265 35.548 49.0464 47.9087 54.9611 43.4353C60.8758 38.9619 55.3198 31.7469 73.2851 27.072C91.2503 22.3971 111.557 52.0289 111.557 66.7437C111.557 81.4586 80.4755 75.102 80.4755 95.4676Z" stroke="#DE190E" stroke-width="0.987558"/>
<path d="M64.7051 61.2774C64.0823 63.4051 68.7209 66.6017 68.2993 59.7541C67.8777 52.9065 75.9726 67.865 77.4904 63.8095C79.0082 59.7541 73.003 59.563 70.323 60.2613C67.643 60.9596 76.2647 66.6098 75.3823 67.278C74.5 67.9462 65.3279 59.1497 64.7051 61.2774Z" stroke="#140107" stroke-width="0.987558"/>
<path d="M43.906 108.765C22.8049 129.866 14.5808 14.3068 33.7339 3.94304C52.887 -6.42068 60.1002 26.4066 70.961 27.9975C81.8217 29.5884 83.4491 16.2646 107.203 30.3311C130.957 44.3975 121.629 96.4738 106.383 111.72C91.1369 126.966 65.0071 87.6643 43.906 108.765Z" stroke="#DE190E" stroke-width="0.987558"/>
<path d="M85.1672 110.661C83.8433 142.33 -5.67865 57.9008 1.84292 36.0267C9.36448 14.1526 38.6079 34.6297 48.2426 28.0641C57.8772 21.4985 49.5691 9.91208 78.2538 3.82886C106.939 -2.25437 137.092 45.1648 136.135 68.0468C135.179 90.9288 86.491 78.9917 85.1672 110.661Z" stroke="#D2130A" stroke-width="0.987558"/>
<path d="M73.0468 55.2191C69.0473 54.9946 73.5601 70.4985 69.8814 68.0368C66.2026 65.5751 69.8814 64.1321 73.3035 62.2646C76.7256 60.3971 74.1498 57.11 73.0468 55.2191Z" stroke="#140107" stroke-width="0.987558"/>
</g>
<defs>
<clipPath id="clip0_7_9">
<rect width="137.333" height="120" fill="white"/>
</clipPath>
</defs>
</svg>
