<svg width="51" height="64" viewBox="0 0 51 64" fill="none" xmlns="http://www.w3.org/2000/svg">
<path d="M39.5294 0C39.5811 0 39.5811 0 39.6339 0C40.1276 0.00036462 40.6088 0.0102094 41.0926 0.118502C41.1216 0.1247 41.1502 0.130534 41.1796 0.136733C42.0243 0.319407 42.7901 0.680746 43.4401 1.24882C43.4716 1.27508 43.5028 1.30133 43.5351 1.32831C45.6621 3.1536 47.0173 6.56463 48.1349 9.08816C48.1511 9.12426 48.1511 9.12426 48.1676 9.16109C49.1432 11.363 49.9487 13.6587 50.4457 16.016C50.4512 16.0411 50.4563 16.0659 50.4618 16.0918C50.6438 16.9596 50.7802 17.8303 50.8778 18.7112C50.8851 18.7798 50.8928 18.848 50.9009 18.9161C51.2409 22.0183 50.7487 25.4742 48.761 27.9802C48.7115 28.0397 48.662 28.0987 48.6118 28.1578C48.5967 28.176 48.5817 28.1943 48.5659 28.2132C48.1514 28.7142 47.6999 29.1842 47.1813 29.5798C47.1446 29.609 47.1079 29.6378 47.0701 29.6677C45.5729 30.844 43.6763 31.6997 41.7895 31.9863C40.6085 32.1333 40.6085 32.1333 39.6622 32.7885C39.5543 32.9376 39.5268 33.0798 39.5019 33.2578C39.339 34.2597 38.7833 35.0258 38.1356 35.7813C37.8913 36.0664 37.6536 36.3556 37.4248 36.6535C37.409 36.6743 37.3928 36.695 37.3763 36.7162C36.8764 37.3667 36.5338 38.0791 36.5811 38.9141C36.6409 39.2685 36.7381 39.6186 36.824 39.9675C37.4996 42.7138 37.9951 45.5017 38.2203 48.3213C38.2236 48.3633 38.2236 48.3633 38.2273 48.4056C38.2423 48.5962 38.2559 48.7869 38.2684 48.9776C38.2702 49.0032 38.272 49.029 38.2739 49.0553C38.3157 49.6587 38.312 50.2637 38.312 50.8682C38.312 50.9882 38.3124 51.1081 38.3127 51.2281C38.3168 52.2209 38.2889 53.2072 38.1653 54.1939C38.1624 54.2191 38.1591 54.2442 38.1561 54.2701C37.793 57.2224 36.8724 60.0238 34.7839 62.2134C34.745 62.2546 34.745 62.2546 34.705 62.2969C34.5132 62.493 34.303 62.6637 34.087 62.8332C34.0511 62.862 34.0147 62.8912 33.9773 62.9211C33.5342 63.2686 33.0659 63.5639 32.5674 63.8268C32.5168 63.8538 32.5168 63.8538 32.4651 63.8811C32.4181 63.9052 32.4181 63.9052 32.3704 63.93C32.3426 63.9442 32.3143 63.9588 32.2857 63.9737C32.263 63.9825 32.2402 63.9909 32.2164 64C32.143 63.9635 32.143 63.9635 32.1038 63.8501C31.9101 63.1369 31.9901 62.4897 32.3583 61.8458C32.4566 61.6803 32.5612 61.5188 32.6657 61.3569C34.3067 58.8063 35.096 55.8533 35.4144 52.8678C35.4188 52.828 35.4188 52.828 35.4232 52.7876C35.5435 51.6758 35.5673 50.5597 35.5637 49.4425C35.5633 49.3426 35.5633 49.2427 35.5629 49.1428C35.5611 48.1922 35.5516 47.2442 35.4892 46.2959C35.4815 46.1766 35.4738 46.057 35.4661 45.9378C35.4162 45.1619 35.3652 44.386 35.3077 43.6104C35.3014 43.5247 35.2952 43.4387 35.2893 43.3526C35.2537 42.8509 35.176 42.3649 35.074 41.8723C35.0502 41.756 35.0267 41.6393 35.0036 41.5226C34.672 39.8483 34.672 39.8483 33.6193 38.5608C32.6774 38.0139 31.2521 38.3194 30.2126 38.3679C29.7475 38.3898 29.2825 38.4106 28.8174 38.4314C28.7719 38.4332 28.726 38.4354 28.6791 38.4376C27.9341 38.4707 27.1896 38.5003 26.4443 38.5221C26.3977 38.5236 26.3511 38.5251 26.303 38.5262C25.8123 38.5404 25.3215 38.5506 24.8308 38.5568C24.7548 38.5579 24.6793 38.559 24.6037 38.5601C24.3682 38.563 24.1328 38.5655 23.8973 38.567C23.4792 38.571 23.0775 38.5881 22.6671 38.6698C19.9448 39.1927 16.7618 37.755 14.4408 36.4467C14.3568 36.3997 14.2724 36.3538 14.1881 36.3082C13.4765 35.9235 12.7972 35.4925 12.1234 35.047C12.0937 35.0273 12.0637 35.0072 12.0328 34.9868C10.9127 34.2462 9.83395 33.4393 8.80952 32.5726C8.68444 32.4673 8.55827 32.3641 8.43026 32.262C8.25603 32.1212 8.09061 31.9721 7.92666 31.8193C7.82433 31.7238 7.72053 31.6305 7.61416 31.5389C7.1278 31.1163 6.67078 30.662 6.2145 30.2077C6.11657 30.11 6.01827 30.0123 5.91997 29.9149C5.85652 29.8518 5.79306 29.7888 5.72997 29.7257C5.701 29.6972 5.67202 29.6684 5.64231 29.6389C5.48973 29.4869 5.34301 29.3319 5.20253 29.1689C5.12074 29.0748 5.03565 28.9848 4.95055 28.894C4.79467 28.7259 4.64722 28.5531 4.50307 28.3751C4.41908 28.2734 4.33288 28.1746 4.24559 28.0758C3.9903 27.7877 3.75373 27.4895 3.52228 27.1821C3.4603 27.1 3.39721 27.0187 3.33412 26.9374C2.74873 26.1808 2.21102 25.3779 1.7364 24.5481C1.71879 24.5167 1.70082 24.4854 1.68211 24.4533C0.596426 22.5416 -0.434611 20.0731 0.18856 17.8438C0.480156 16.8535 0.992555 15.9802 1.80976 15.3232C1.86184 15.2809 1.86184 15.2809 1.91502 15.2379C2.20625 15.0063 2.51215 14.8123 2.83676 14.6304C2.87234 14.6103 2.87234 14.6103 2.90865 14.5896C3.91511 14.0182 5.04152 13.7188 6.16572 13.472C6.68289 13.3568 7.25727 13.2142 7.58225 12.7617C7.82176 12.3654 7.89585 11.9417 7.91456 11.4877C7.956 10.5594 8.29455 9.63838 8.92542 8.94232C8.96063 8.90294 8.96063 8.90294 8.99621 8.86319C9.268 8.57514 9.58307 8.37971 9.9847 8.34762C10.3111 8.35892 10.5653 8.49967 10.796 8.72354C10.9673 8.92554 11.1056 9.14796 11.2431 9.37293C11.4706 9.74339 11.7434 10.0442 12.1799 10.166C12.48 10.2232 12.7279 10.1806 12.9968 10.0362C13.0752 9.9793 13.1449 9.9184 13.2168 9.85387C13.2414 9.85387 13.2652 9.85387 13.2902 9.85387C13.3049 9.82324 13.3049 9.82324 13.3192 9.79188C13.3683 9.69963 13.4255 9.61905 13.4875 9.53482C13.5987 9.37913 13.6867 9.2249 13.767 9.0517C13.9277 9.12463 14.0318 9.22927 14.1547 9.35251C14.1774 9.37549 14.2002 9.39809 14.2237 9.42179C14.7669 9.97601 15.1945 10.6349 15.5624 11.3145C15.5995 11.3824 15.6373 11.4498 15.6754 11.5173C15.9531 12.0153 16.1786 12.5397 16.4134 13.0585C17.3564 15.1416 18.4347 16.824 20.6424 17.7074C20.8133 17.7763 20.8133 17.7763 20.9927 17.8026C20.9747 17.7676 20.9568 17.7322 20.9381 17.6961C20.5243 16.8889 20.133 16.0758 19.7706 15.2444C19.7181 15.1245 19.6646 15.0052 19.6107 14.886C19.1298 13.8202 18.7333 12.7176 18.3761 11.6055C18.3511 11.5278 18.3254 11.4502 18.2998 11.3725C18.2829 11.3207 18.266 11.269 18.2491 11.2172C18.2411 11.1938 18.2334 11.1705 18.2253 11.1461C18.1483 10.9065 18.1494 10.6856 18.1684 10.4373C18.1703 10.4121 18.1721 10.3866 18.1736 10.3607C18.2895 8.6725 19.0458 7.13125 20.2019 5.90685C20.2866 5.81642 20.3684 5.72454 20.4495 5.6312C20.5606 5.50613 20.678 5.39602 20.806 5.28845C20.8882 5.21881 20.9667 5.14589 21.0455 5.0726C21.7875 4.41118 22.6476 3.8668 23.5235 3.40009C23.5569 3.38258 23.5899 3.36472 23.6237 3.34649C25.7298 2.23403 28.1183 1.59667 30.491 1.43041C31.9061 1.33123 33.2709 1.04683 34.6526 0.738356C37.2006 0.168819 37.2006 0.168819 38.3784 0.0455776C38.4066 0.042296 38.4349 0.0386498 38.4642 0.0353682C38.8178 -0.00291696 39.174 0.00036462 39.5294 0ZM36.6824 1.87123C36.6479 1.87743 36.6131 1.88399 36.5775 1.89056C36.368 1.92884 36.368 1.92884 36.159 1.96749C35.6169 2.0674 35.077 2.14871 34.5271 2.19684C34.6313 2.30039 34.7355 2.40358 34.84 2.5064C35.2893 2.94905 35.2893 2.94905 35.4595 3.14996C35.5288 3.23054 35.6011 3.3082 35.6737 3.38659C35.8593 3.59115 36.0299 3.80627 36.1986 4.02468C36.2334 4.06953 36.2683 4.11438 36.3031 4.15922C38.3318 6.74767 39.3695 9.95851 40.0201 15.4234C40.0231 15.4701 40.0231 15.4701 40.0264 15.5175C40.084 16.3543 40.1082 17.19 40.1085 18.0287C40.1089 18.1238 40.1089 18.219 40.1093 18.3142C40.1096 18.5679 40.1096 18.8221 40.1093 19.0758C40.1093 19.2078 40.1093 19.3402 40.1093 19.4722C40.11 21.1349 40.0928 22.7964 40.0554 24.4587C40.0392 25.1672 40.0256 25.8753 40.0245 26.5841C40.0245 26.6147 40.0242 26.6457 40.0242 26.6771C40.0231 27.111 40.0388 27.5423 40.0656 27.9755C40.6998 27.7724 41.2911 27.3166 41.7671 26.8623C41.8629 26.7723 41.8629 26.7723 41.9692 26.6877C42.7685 26.0335 43.3095 24.9495 43.6601 24.0011C43.6693 23.9771 43.6781 23.9534 43.6876 23.9286C43.9301 23.2734 44.0779 22.5893 44.1832 21.8998C44.1887 21.8641 44.1942 21.828 44.1997 21.7912C44.3101 21.0178 44.3343 20.2441 44.3321 19.4638C44.3321 19.4146 44.3317 19.3657 44.3317 19.3165C44.3299 18.4797 44.2987 17.6505 44.2103 16.8181C44.207 16.7842 44.2033 16.7503 44.1997 16.7153C43.9558 14.4116 43.5336 12.1346 43.125 9.85569C42.4816 6.26637 42.4816 6.26637 42.3874 4.55083C42.3364 3.6287 42.248 2.74486 41.5339 2.0736C40.227 1.03479 38.1708 1.59704 36.6824 1.87123ZM27.3381 4.20225C27.2732 4.22085 27.2732 4.22085 27.2064 4.24017C25.6674 4.68355 24.0708 5.28189 22.8266 6.31705C22.8057 6.33419 22.7848 6.35132 22.7636 6.36919C21.4761 7.42951 20.6611 8.8023 20.4909 10.4715C20.4862 10.5452 20.4825 10.6188 20.4792 10.6925C20.4766 10.761 20.4766 10.761 20.4733 10.8307C20.4293 12.4204 20.941 13.9748 21.6162 15.3961C21.6346 15.4344 21.6526 15.4723 21.6713 15.5117C22.2156 16.6493 22.8883 17.7326 23.6336 18.7506C23.6647 18.7929 23.6647 18.7929 23.6963 18.8363C23.9732 19.2151 24.2556 19.5889 24.5505 19.9539C24.5696 19.9772 24.5883 20.0005 24.6078 20.0246C24.8608 20.3374 25.118 20.647 25.3802 20.9522C25.433 21.0138 25.4858 21.0754 25.5383 21.1374C25.7404 21.3737 25.9462 21.6056 26.1589 21.8324C26.2576 21.9374 26.3544 22.0439 26.449 22.1529C26.5539 22.2739 26.6658 22.3862 26.7813 22.4971C26.8466 22.5638 26.9068 22.6313 26.9673 22.702C27.154 22.916 27.3572 23.1137 27.5586 23.3135C27.6279 23.382 27.6968 23.4509 27.7658 23.5195C27.8098 23.5632 27.8535 23.6066 27.8975 23.65C27.9283 23.681 27.9283 23.681 27.9598 23.7127C28.0394 23.8104 28.0394 23.8104 28.1451 23.8553C28.0739 23.1395 27.6488 22.4595 27.2398 21.8816C27.1789 21.7955 27.1188 21.7088 27.0586 21.6224C26.8496 21.3226 26.6401 21.0233 26.427 20.7265C26.266 20.5011 26.1079 20.2744 25.9561 20.0428C25.941 20.0206 25.9264 19.998 25.9113 19.975C25.5977 19.4926 25.3384 18.9796 25.0871 18.4636C25.0721 18.4323 25.0567 18.4013 25.0413 18.3696C24.3451 16.941 23.7829 15.473 23.5235 13.9012C23.5188 13.8716 23.514 13.8421 23.5089 13.8118C23.357 12.8408 23.3456 11.6861 23.8903 10.827C24.1889 10.4281 24.5858 10.2276 25.0758 10.1558C26.3731 10.0209 27.6811 10.7508 28.7319 11.4217C28.7572 11.4378 28.7822 11.4538 28.8082 11.4702C28.9681 11.5731 29.1255 11.6788 29.2821 11.7864C29.3041 11.8009 29.3261 11.8159 29.3485 11.8312C29.6313 12.0223 29.8899 12.2261 30.1378 12.4602C30.2192 12.5364 30.3018 12.6086 30.3872 12.6797C31.1457 13.3371 31.7238 14.2607 32.1797 15.1409C32.1933 15.1668 32.2068 15.1926 32.2208 15.2196C33.2261 17.1725 33.5735 19.3883 33.9641 21.5228C34.3232 23.6569 34.3232 23.6569 35.1507 25.6419C35.1687 25.6744 35.1866 25.7068 35.205 25.7404C35.7163 26.6414 36.4975 27.2371 37.4911 27.5172C37.9291 27.6339 38.3681 27.6634 38.8185 27.6838C38.7943 27.4267 38.7133 27.1883 38.6352 26.9433C38.6278 26.9199 38.6205 26.8966 38.6131 26.8729C38.147 25.3984 37.5579 23.9785 36.8962 22.5813C36.8837 22.5551 36.8713 22.5284 36.8584 22.5015C36.5859 21.9268 36.3017 21.3584 36.0141 20.7914C35.9444 20.6532 35.8747 20.5154 35.805 20.3772C35.5996 19.9699 35.3939 19.5626 35.1881 19.1557C35.0271 18.8374 34.8661 18.5194 34.7058 18.2008C34.6372 18.0651 34.5686 17.9291 34.4996 17.7935C34.1563 17.1164 33.8291 16.4345 33.5174 15.7425C33.1212 14.8627 32.7049 13.9923 32.2692 13.1311C32.1265 12.8485 31.9886 12.5637 31.8522 12.2782C31.7564 12.0781 31.6585 11.8797 31.5573 11.6821C30.3946 9.40611 29.4317 6.93508 29.3349 4.3594C29.3334 4.31966 29.332 4.27955 29.3301 4.23835C29.3265 4.14136 29.3224 4.044 29.3188 3.94702C28.6153 3.90691 28.0115 4.0028 27.3381 4.20225ZM31.0793 4.12933C31.006 7.44774 32.4233 10.6575 34.6254 15.3006C34.7329 15.5124 34.8374 15.7253 34.9376 15.9408C35.0461 16.1731 35.1635 16.3995 35.2849 16.6256C35.4478 16.9301 35.6015 17.2389 35.7559 17.5474C35.9371 17.9087 36.119 18.2693 36.3101 18.6255C36.43 18.8498 36.5448 19.0766 36.6574 19.3045C36.7594 19.5094 36.8661 19.7117 36.9736 19.9141C37.1632 20.2707 37.347 20.6299 37.5282 20.9908C37.544 21.0222 37.5597 21.0535 37.5759 21.0856C37.8359 21.603 38.0868 22.1237 38.3274 22.6502C38.4173 22.8457 38.5079 23.0404 38.5985 23.2354C38.641 23.1093 38.6315 23.0345 38.6172 22.9029C38.6128 22.8566 38.608 22.8107 38.6029 22.7633C38.6003 22.7388 38.5977 22.714 38.5952 22.6885C38.549 22.2491 38.5123 21.8098 38.4877 21.3686C38.4862 21.3438 38.4848 21.319 38.4833 21.2935C38.4749 21.1385 38.4668 20.9832 38.4584 20.8278C38.451 20.6875 38.4433 20.5471 38.4356 20.4067C38.4048 19.8383 38.3751 19.2698 38.3465 18.7014C38.1257 13.7706 38.1257 13.7706 35.0707 6.13693C35.0535 6.11833 35.0366 6.1001 35.0194 6.08077C34.0272 5.02483 32.5296 4.25986 31.0793 4.12933ZM26.2378 14.5939C26.3122 15.6028 26.6731 16.6081 27.118 17.5109C27.1426 17.5608 27.1426 17.5609 27.1676 17.6115C27.8579 19.0091 28.8911 20.3265 30.0821 21.3427C30.246 21.4845 30.4056 21.6311 30.5658 21.777C30.5901 21.7649 30.6143 21.7529 30.6392 21.7405C29.8906 19.5663 28.8706 17.5295 27.3748 15.7607C27.3433 15.7224 27.3117 15.6841 27.2802 15.6459C27.059 15.3811 26.8239 15.1336 26.5796 14.8904C26.5499 14.8608 26.5206 14.8317 26.4901 14.8014C26.3793 14.668 26.3793 14.668 26.2378 14.5939ZM5.0008 15.6878C4.97513 15.6955 4.94908 15.7031 4.92231 15.7111C4.75139 15.7625 4.58156 15.8154 4.41174 15.8701C4.35636 15.888 4.30061 15.9055 4.24449 15.9226C3.48267 16.1571 2.99118 16.7518 2.61669 17.438C1.93666 18.8027 2.14647 20.2663 2.60312 21.6628C3.22299 23.487 4.31711 25.1701 5.47762 26.6993C5.49743 26.7252 5.51687 26.7507 5.53668 26.7774C5.67459 26.9589 5.81433 27.1394 5.95445 27.3192C5.97205 27.3414 5.98929 27.3637 6.0069 27.3863C6.1063 27.5132 6.20643 27.6393 6.30693 27.7651C6.35938 27.8311 6.41073 27.8975 6.46208 27.9642C6.72874 28.3044 7.0229 28.6092 7.33283 28.9104C7.49679 29.0697 7.65377 29.2305 7.80305 29.4034C7.89695 29.5102 7.99855 29.6086 8.10015 29.7074C8.2531 29.8573 8.39982 30.0094 8.5392 30.172C8.61659 30.2602 8.70058 30.3412 8.78458 30.4232C8.84986 30.4888 8.91075 30.557 8.97164 30.627C9.10515 30.7798 9.24379 30.9278 9.3839 31.0748C9.43049 31.1233 9.4767 31.1721 9.52292 31.2206C9.54896 31.248 9.57537 31.2757 9.60214 31.3041C9.6733 31.3789 9.74372 31.4543 9.81414 31.5298C10.1476 31.8861 10.489 32.2335 10.8356 32.577C10.9233 32.6642 11.0106 32.7513 11.0983 32.8384C11.1548 32.8946 11.2116 32.9511 11.2685 33.0073C11.2941 33.0332 11.3194 33.0587 11.3458 33.0849C11.4918 33.229 11.6411 33.3668 11.797 33.5002C11.8781 33.5699 11.9573 33.6417 12.0365 33.7135C12.2291 33.886 12.4271 34.0504 12.63 34.2105C12.663 34.2364 12.663 34.2364 12.6964 34.263C14.1906 35.4378 15.8731 36.314 17.765 36.617C17.8226 36.6265 17.8798 36.636 17.937 36.6454C20.1249 37.0068 22.334 37.2555 24.5505 37.3462C24.5975 37.3484 24.6441 37.3503 24.6921 37.3524C27.6253 37.4782 30.6363 37.3823 33.5368 36.9087C33.4297 36.2557 33.2423 35.5716 32.8766 35.0127C32.8568 34.9824 32.837 34.9518 32.8164 34.9204C32.6228 34.6499 32.3462 34.426 32.0202 34.3359C31.0746 34.1788 30.1561 34.6776 29.3158 35.0429C27.7276 35.7335 26.1523 36.2768 24.4038 36.3618C24.3587 36.364 24.3132 36.3661 24.2663 36.3683C22.4125 36.407 20.7015 35.7835 19.0487 35.0127C18.9978 34.9886 18.9978 34.9886 18.9453 34.9645C18.4245 34.7192 17.9289 34.4326 17.4349 34.1376C17.4008 34.1172 17.3667 34.0971 17.3318 34.076C16.8722 33.8021 16.4339 33.5083 16.0044 33.1896C15.9626 33.1586 15.9208 33.128 15.8786 33.097C15.3812 32.7302 14.9037 32.3382 14.4463 31.9232C14.396 31.878 14.3458 31.8335 14.2941 31.7898C14.0725 31.6017 13.8664 31.3978 13.6606 31.1925C13.6001 31.132 13.5389 31.0715 13.478 31.011C13.2729 30.8075 13.0741 30.6015 12.8867 30.382C12.8493 30.3397 12.8119 30.2978 12.7741 30.2558C12.4998 29.9466 12.243 29.6276 11.9951 29.2973C11.9529 29.2415 11.9111 29.1857 11.8689 29.1303C11.5667 28.7317 11.2806 28.327 11.0161 27.9026C10.9989 27.8749 10.9816 27.8472 10.964 27.8187C9.19648 24.9769 8.21605 21.7948 8.09318 17.2119C8.09502 17.1667 8.09685 17.1211 8.09868 17.0744C8.10272 16.9869 8.10712 16.8998 8.11189 16.8123C8.13206 16.3882 8.10749 15.9897 7.82506 15.6513C7.56391 15.4081 7.2206 15.3224 6.86921 15.3097C6.231 15.3319 5.60893 15.5055 5.0008 15.6878ZM19.0854 19.2975C19.1074 19.4164 19.1357 19.5283 19.176 19.6425C19.187 19.6738 19.198 19.7052 19.2094 19.7376C19.2274 19.7883 19.2274 19.7883 19.2457 19.8405C19.2585 19.8766 19.271 19.9123 19.2842 19.9495C19.3264 20.0687 19.3686 20.1879 19.4111 20.3072C19.4258 20.348 19.4405 20.3892 19.4555 20.4315C20.0526 22.1084 20.6839 23.7747 21.4523 25.3823C21.5095 25.5026 21.566 25.623 21.6228 25.7433C21.8638 26.2523 22.1242 26.7456 22.4092 27.2317C22.4529 27.3072 22.4962 27.383 22.5383 27.4592C23.0515 28.3766 23.6758 29.2557 24.4038 30.0174C24.424 30.0385 24.4442 30.0597 24.4651 30.0816C25.3468 31.004 26.4725 31.7923 27.7951 31.8492C28.5496 31.8667 29.3573 31.7161 30.0157 31.33C30.1473 31.159 30.187 30.9497 30.1763 30.7382C30.0498 29.8088 29.4317 28.9808 28.8625 28.2657C28.8082 28.1976 28.7547 28.129 28.7011 28.0601C28.3637 27.6262 28.0024 27.2145 27.6315 26.8087C27.5791 26.7504 27.5263 26.6917 27.4735 26.6333C27.1283 26.2523 26.7766 25.88 26.4116 25.518C26.3702 25.4768 26.3287 25.4356 26.2873 25.3944C26.2014 25.309 26.1156 25.2237 26.0294 25.1384C25.9201 25.0297 25.8108 24.9211 25.7015 24.8121C25.6164 24.7275 25.531 24.6425 25.4459 24.5579C25.4055 24.5178 25.3652 24.4777 25.3248 24.4376C25.1293 24.2429 24.9338 24.05 24.7222 23.8724C24.6558 23.8145 24.5942 23.7539 24.5322 23.6912C24.4262 23.5836 24.3147 23.4852 24.1999 23.3868C24.0825 23.2836 23.9681 23.1775 23.8536 23.0714C23.6732 22.904 23.4913 22.7388 23.3035 22.5791C23.2661 22.547 23.2286 22.5153 23.1912 22.4832C23.1263 22.4282 23.0614 22.3727 22.9965 22.3177C22.8347 22.1799 22.6737 22.0413 22.5127 21.9024C22.1606 21.5987 21.8073 21.2982 21.4391 21.0134C21.2993 20.9051 21.1625 20.7943 21.0272 20.6809C20.8009 20.4924 20.5687 20.3126 20.3325 20.1362C20.2925 20.1063 20.2925 20.1063 20.2518 20.0756C19.7082 19.5914 19.7082 19.5914 19.0854 19.2975ZM29.8323 25.7513C29.8836 25.8895 29.9478 26.0095 30.0259 26.1345C30.0498 26.1732 30.074 26.2118 30.0986 26.2516C30.1246 26.2928 30.1503 26.3343 30.1763 26.3759C30.2031 26.4189 30.2299 26.462 30.2566 26.505C30.4243 26.7737 30.5934 27.0413 30.7639 27.3082C30.9546 27.6072 31.141 27.9091 31.3269 28.211C31.3508 28.2497 31.375 28.2887 31.3995 28.3288C31.4318 28.381 31.4318 28.381 31.4645 28.4338C31.5059 28.5006 31.5492 28.5666 31.5928 28.6318C31.7143 28.5943 31.7407 28.5574 31.8041 28.4448C31.9281 28.1093 31.8071 27.8147 31.6662 27.5015C31.4824 27.1682 31.233 26.8977 30.9693 26.6264C30.9433 26.598 30.9169 26.5695 30.8897 26.54C30.5864 26.2209 30.2185 25.9628 29.8323 25.7513ZM34.3438 29.7257C34.314 29.8008 34.2843 29.8759 34.2546 29.9514C34.2381 29.9933 34.2212 30.0349 34.2044 30.0783C34.0408 30.5322 34.0679 31.1138 34.2704 31.5488C34.7601 32.4746 35.6623 32.9792 36.5958 33.3894C36.6241 33.4018 36.6523 33.4145 36.6813 33.4273C36.7935 33.451 36.8474 33.4248 36.9479 33.3719C37.0136 33.3238 37.0136 33.3238 37.0704 33.2658C37.0921 33.245 37.1137 33.2242 37.1357 33.2023C37.1577 33.1801 37.1797 33.1579 37.2025 33.1349C37.2366 33.1006 37.2366 33.1006 37.2714 33.0656C37.5465 32.7823 37.7292 32.5019 37.7688 32.1026C37.7534 31.722 37.5282 31.4522 37.2623 31.1998C36.6406 30.635 35.8069 30.316 35.0432 29.9878C35.0124 29.9747 34.982 29.9616 34.9504 29.9477C34.8635 29.9105 34.7762 29.8737 34.6893 29.8365C34.6496 29.8198 34.6496 29.8198 34.6089 29.8026C34.4809 29.7454 34.4809 29.7454 34.3438 29.7257ZM35.2974 34.7939C35.3865 35.1425 35.501 35.4812 35.6161 35.8218C35.6352 35.8779 35.6543 35.9341 35.673 35.9902C35.7188 36.1262 35.765 36.2622 35.8109 36.3982C35.9569 36.2746 36.1021 36.1503 36.2444 36.0223C36.291 35.9804 36.291 35.9804 36.3387 35.9377C36.3702 35.9093 36.4022 35.8805 36.4344 35.8513C36.6402 35.6664 36.8467 35.4827 37.058 35.3044C36.9773 35.2238 36.938 35.2121 36.8295 35.183C36.7976 35.1742 36.7653 35.1655 36.7323 35.1563C36.6978 35.1472 36.6629 35.1381 36.6274 35.1286C36.5738 35.114 36.5738 35.114 36.5195 35.0995C36.4443 35.079 36.3691 35.059 36.294 35.0389C36.1784 35.0083 36.0629 34.9769 35.9473 34.9459C35.8743 34.9263 35.8014 34.9066 35.7287 34.8869C35.6939 34.8778 35.659 34.8683 35.6235 34.8588C35.5912 34.8501 35.5593 34.8417 35.5263 34.8329C35.4837 34.8216 35.4837 34.8216 35.4404 34.8099C35.3711 34.791 35.3711 34.791 35.2974 34.7939Z" fill="black"/>
</svg>
