<svg width="98" height="68" viewBox="0 0 98 68" fill="none" xmlns="http://www.w3.org/2000/svg">
<path d="M90.3608 15.8384C90.3985 15.8602 90.3985 15.8602 90.437 15.8824C90.797 16.0906 91.1438 16.3004 91.4511 16.5832C91.4696 16.5999 91.4881 16.6162 91.5069 16.6331C92.0461 17.122 92.4525 17.7081 92.6874 18.3962C92.6993 18.4286 92.711 18.4609 92.7232 18.4942C93.506 20.7213 93.0581 23.7801 92.8105 26.0915C92.8071 26.1246 92.8071 26.1246 92.8036 26.1584C92.588 28.1755 92.2087 30.1892 91.5785 32.1179C91.5719 32.1386 91.5653 32.1588 91.5584 32.18C91.3256 32.8896 91.0584 33.5822 90.7586 34.2658C90.7351 34.3189 90.712 34.3719 90.6892 34.425C89.6308 36.831 87.8164 39.1445 85.3112 40.1354C85.2501 40.1579 85.1891 40.1801 85.1275 40.2021C85.1089 40.209 85.0902 40.216 85.0707 40.2232C84.5574 40.4141 84.0302 40.5667 83.4853 40.6369C83.4462 40.6427 83.4073 40.6483 83.3672 40.6542C81.7797 40.8816 80.0359 40.7071 78.539 40.1216C77.6156 39.7314 77.6156 39.7314 76.6494 39.8108C76.508 39.8742 76.428 39.9663 76.3349 40.0856C75.7941 40.7479 75.0662 41.0726 74.2756 41.3509C73.9773 41.456 73.6822 41.5669 73.3898 41.6878C73.3695 41.6963 73.349 41.7046 73.328 41.7131C72.6894 41.9771 72.1395 42.3525 71.8224 42.9814C71.7168 43.2651 71.6402 43.5614 71.5559 43.8521C70.8921 46.1398 70.0795 48.382 69.0564 50.5335C69.0411 50.5655 69.0411 50.5655 69.026 50.5979C68.9567 50.7433 68.8862 50.8881 68.815 51.0325C68.8056 51.0519 68.7961 51.0715 68.7863 51.0915C68.5627 51.5492 68.3053 51.9889 68.0507 52.4299C68.0002 52.5174 67.9499 52.605 67.8997 52.6927C67.4845 53.4186 67.0488 54.1263 66.5431 54.7939C66.5304 54.811 66.5174 54.828 66.5044 54.8456C64.9962 56.8462 63.1449 58.5019 60.6994 59.2194C60.6537 59.2331 60.6537 59.2331 60.6068 59.2471C60.3842 59.3094 60.1591 59.3454 59.9301 59.3781C59.8917 59.384 59.853 59.39 59.8131 59.396C59.3436 59.4629 58.8775 59.4811 58.4032 59.4629C58.3549 59.4613 58.3549 59.4613 58.3057 59.4594C58.2613 59.4572 58.2613 59.4572 58.2161 59.4552C58.1898 59.4538 58.163 59.4526 58.1359 59.4514C58.1156 59.4483 58.0955 59.4448 58.0743 59.4414C58.0361 59.3839 58.0361 59.3839 58.0552 59.2847C58.2143 58.6829 58.5452 58.2445 59.085 57.9299C59.2264 57.8505 59.3707 57.7767 59.5151 57.7027C61.7862 56.5334 63.6055 54.7117 65.0951 52.6681C65.115 52.641 65.115 52.641 65.1353 52.6133C65.6912 51.8531 66.1786 51.049 66.6464 50.2326C66.6882 50.1595 66.7303 50.0867 66.7721 50.0136C67.1711 49.3195 67.5634 48.624 67.9173 47.906C67.9619 47.8158 68.0066 47.7253 68.0512 47.6351C68.3416 47.0481 68.6311 46.4607 68.9157 45.8707C68.9473 45.8056 68.979 45.7402 69.0109 45.675C69.1963 45.294 69.3442 44.9067 69.4773 44.5045C69.5089 44.4096 69.5409 44.3146 69.5732 44.2198C70.0364 42.8588 70.0364 42.8589 69.8108 41.4764C69.3541 40.6808 68.1857 40.3034 67.4071 39.9011C67.0587 39.7212 66.7107 39.5405 66.3627 39.3598C66.3287 39.3419 66.2944 39.3242 66.2592 39.306C65.7018 39.0165 65.1463 38.7245 64.5934 38.4266C64.5589 38.408 64.5243 38.3895 64.4888 38.3701C64.1248 38.1737 63.7625 37.9745 63.4019 37.7724C63.3461 37.7412 63.2905 37.7102 63.235 37.6792C63.062 37.5821 62.8891 37.4848 62.7168 37.3867C62.4101 37.2135 62.1099 37.0569 61.7761 36.9436C59.5702 36.1786 57.854 33.7895 56.7119 31.8577C56.6705 31.7881 56.6283 31.719 56.5859 31.6502C56.2289 31.07 55.9149 30.4696 55.6111 29.8608C55.5977 29.8339 55.5842 29.8066 55.5703 29.7788C55.0651 28.7669 54.6181 27.724 54.2359 26.6604C54.189 26.5309 54.1404 26.4025 54.0901 26.2741C54.0222 26.0981 53.9644 25.9196 53.9091 25.7391C53.8747 25.6264 53.8383 25.5146 53.7993 25.403C53.6225 24.8899 53.4804 24.3661 53.339 23.8425C53.3087 23.73 53.2781 23.6174 53.2474 23.5049C53.2277 23.4322 53.208 23.3595 53.1885 23.2869C53.1794 23.254 53.1704 23.2207 53.1611 23.1867C53.1139 23.0115 53.0721 22.8367 53.0383 22.6587C53.0182 22.5556 52.9941 22.4541 52.9703 22.352C52.9273 22.1638 52.8926 21.9756 52.8624 21.7851C52.8439 21.6755 52.8227 21.5672 52.8006 21.4583C52.7357 21.1407 52.6888 20.8235 52.6494 20.5018C52.6387 20.4159 52.6269 20.33 52.6152 20.2441C52.5068 19.4457 52.4527 18.6337 52.456 17.8285C52.4564 17.7982 52.4564 17.7677 52.4563 17.7364C52.4695 15.8848 52.757 13.65 54.1503 12.2864C54.7801 11.6868 55.5216 11.2657 56.3944 11.1305C56.4502 11.1216 56.4502 11.1216 56.5071 11.1126C56.817 11.0664 57.1218 11.0537 57.4352 11.0577C57.4696 11.0581 57.4696 11.0581 57.5049 11.0582C58.4796 11.0653 59.4273 11.3213 60.3513 11.6147C60.777 11.7484 61.256 11.8863 61.6836 11.6931C62.0253 11.5049 62.2577 11.2271 62.4625 10.9038C62.8837 10.2441 63.5185 9.71489 64.2718 9.47285C64.3141 9.45895 64.3141 9.45895 64.3568 9.44494C64.6763 9.34929 64.9885 9.33942 65.2949 9.48516C65.5283 9.63088 65.6544 9.84058 65.7284 10.101C65.7683 10.3205 65.7755 10.541 65.7811 10.763C65.7909 11.129 65.8633 11.4633 66.1304 11.736C66.3251 11.9041 66.524 11.9774 66.7809 11.9853C66.8621 11.9769 66.9386 11.9618 67.0182 11.945C67.0361 11.9553 67.0535 11.9654 67.0717 11.9759C67.0953 11.9597 67.0953 11.9597 67.1189 11.9429C67.1936 11.8963 67.2693 11.8616 67.35 11.8263C67.4966 11.7595 67.6258 11.6841 67.7573 11.5916C67.8438 11.7124 67.8757 11.8326 67.9134 11.9743C67.9203 12.0006 67.9274 12.0267 67.9345 12.0538C68.0974 12.6868 68.1318 13.3475 68.114 13.9982C68.1124 14.0633 68.1116 14.1284 68.111 14.1937C68.1038 14.6739 68.0475 15.1514 68.0002 15.6287C67.8108 17.5452 67.8889 19.2265 69.1272 20.8006C69.2228 20.9229 69.2228 20.9229 69.3426 21.0176C69.3442 20.9845 69.346 20.9511 69.3476 20.9169C69.3858 20.1538 69.4427 19.3959 69.5285 18.6369C69.5407 18.5273 69.5519 18.4178 69.5628 18.3081C69.6609 17.3282 69.836 16.357 70.0437 15.3954C70.0583 15.3282 70.0722 15.2607 70.0862 15.1933C70.0957 15.1484 70.1052 15.1035 70.1147 15.0587C70.1186 15.0382 70.1229 15.018 70.1273 14.9968C70.172 14.7896 70.2658 14.6289 70.3843 14.4558C70.3962 14.4382 70.4083 14.4204 70.4203 14.4021C71.2158 13.2195 72.4165 12.4138 73.7754 12.0076C73.8753 11.9773 73.9737 11.9447 74.0721 11.9108C74.2058 11.8664 74.3378 11.8355 74.4765 11.8109C74.5657 11.7947 74.6537 11.7746 74.7421 11.7543C75.5619 11.5844 76.4185 11.5495 77.2539 11.5779C77.2857 11.5792 77.3173 11.5801 77.3496 11.581C79.3543 11.6565 81.3649 12.1975 83.1656 13.0754C84.2396 13.599 85.3549 13.9663 86.4926 14.3232C88.5911 14.9808 88.5911 14.9808 89.502 15.3869C89.524 15.3964 89.5462 15.4057 89.5689 15.4156C89.843 15.5366 90.1014 15.689 90.3608 15.8384ZM87.4961 16.0043C87.4683 15.9943 87.4401 15.9845 87.4114 15.9743C87.2425 15.914 87.2425 15.914 87.0738 15.8541C86.6363 15.6987 86.2082 15.5307 85.7869 15.3342C85.8193 15.4536 85.8518 15.5728 85.8847 15.6918C86.0261 16.2039 86.0261 16.2039 86.0656 16.4221C86.0822 16.5101 86.1022 16.5971 86.1222 16.6849C86.1714 16.9123 86.2052 17.141 86.2363 17.3714C86.2429 17.4188 86.2494 17.4661 86.2559 17.5135C86.6456 20.2559 86.0503 23.035 84.2235 27.2952C84.206 27.3305 84.206 27.3305 84.1884 27.3664C83.878 28.0011 83.5437 28.6208 83.1908 29.2327C83.151 29.3023 83.1109 29.3717 83.0711 29.4413C82.9645 29.6265 82.8575 29.8119 82.7503 29.9969C82.6948 30.0931 82.639 30.1897 82.5834 30.286C81.8838 31.499 81.1715 32.7038 80.4441 33.9005C80.134 34.4105 79.8259 34.9213 79.5266 35.4378C79.5137 35.4602 79.5004 35.4826 79.4872 35.5055C79.3036 35.8215 79.1335 36.1428 78.9706 36.47C79.5187 36.589 80.1419 36.5055 80.6805 36.3746C80.7883 36.3492 80.7883 36.3493 80.9015 36.3323C81.7599 36.1918 82.6111 35.6289 83.2662 35.0848C83.283 35.0711 83.2995 35.0576 83.3168 35.0435C83.7696 34.6677 84.1655 34.231 84.5327 33.7724C84.5517 33.7486 84.5709 33.7246 84.5905 33.7001C84.9967 33.1824 85.3402 32.6283 85.6672 32.0582C85.6879 32.0223 85.7082 31.9865 85.7289 31.9506C86.08 31.3394 86.4064 30.7215 86.6925 30.0771C86.7044 30.051 86.716 30.0247 86.7281 29.9976C87.5203 28.2146 88.1713 26.3759 88.833 24.5415C89.8753 21.6525 89.8753 21.6525 90.529 20.3614C90.8801 19.6674 91.1878 18.9854 90.9496 18.1951C90.4339 16.887 88.6972 16.4312 87.4961 16.0043ZM79.6986 13.7695C79.6434 13.7557 79.6434 13.7557 79.5865 13.7417C78.2772 13.417 76.8606 13.181 75.5172 13.4121C75.4947 13.4158 75.4723 13.4195 75.4492 13.4236C74.0636 13.6548 72.891 14.313 72.0639 15.4589C72.0294 15.5106 71.9957 15.5628 71.9623 15.6151C71.9316 15.664 71.9316 15.664 71.8998 15.7134C71.1982 16.8545 70.9169 18.2037 70.8109 19.5248C70.8081 19.5605 70.8053 19.5957 70.8023 19.6323C70.7203 20.6913 70.7547 21.7648 70.8697 22.8212C70.8746 22.8652 70.8746 22.8652 70.8793 22.9101C70.9218 23.3031 70.9704 23.6946 71.0318 24.0851C71.0359 24.1101 71.0397 24.135 71.0437 24.1607C71.0966 24.4955 71.1538 24.8296 71.2165 25.1627C71.2291 25.2298 71.2417 25.297 71.2538 25.3643C71.3018 25.6218 71.3542 25.8776 71.4138 26.1326C71.4416 26.2508 71.4674 26.3692 71.4905 26.4886C71.516 26.621 71.5503 26.7501 71.5879 26.8796C71.6075 26.9557 71.6229 27.0303 71.6373 27.1074C71.6833 27.3421 71.7483 27.5718 71.8111 27.8024C71.8328 27.8816 71.854 27.9609 71.8755 28.0399C71.8891 28.0904 71.9027 28.1404 71.9165 28.1906C71.926 28.2262 71.926 28.2262 71.9356 28.2626C71.9525 28.3674 71.9525 28.3674 72.0107 28.4446C72.2602 27.8925 72.2365 27.2175 72.1816 26.6237C72.1734 26.5353 72.1661 26.4467 72.1586 26.3583C72.1323 26.0517 72.1056 25.7451 72.0751 25.4389C72.0526 25.2067 72.0328 24.9747 72.0195 24.7419C72.0179 24.7193 72.0168 24.6966 72.0155 24.6735C71.9899 24.1896 72.0168 23.7062 72.0508 23.2241C72.053 23.1948 72.0548 23.1658 72.0569 23.1361C72.1508 21.8009 72.3588 20.4934 72.8316 19.2376C72.8406 19.2141 72.8496 19.1905 72.8586 19.1663C73.1567 18.3941 73.6347 17.547 74.3938 17.1498C74.7795 16.9845 75.1535 17.0054 75.5412 17.1594C76.5443 17.6073 77.1909 18.6906 77.6749 19.6225C77.6866 19.6448 77.698 19.667 77.7101 19.69C77.7834 19.8323 77.8537 19.9757 77.9226 20.1201C77.9325 20.14 77.9423 20.1602 77.9522 20.1808C78.078 20.4393 78.1808 20.6968 78.263 20.972C78.2903 21.0619 78.3201 21.1493 78.3525 21.2371C78.629 22.0361 78.6616 22.9532 78.6235 23.7872C78.6225 23.8118 78.6215 23.8364 78.6203 23.862C78.5312 25.7099 77.8514 27.4724 77.2375 29.1938C76.6007 30.9017 76.6007 30.9017 76.3683 32.6981C76.3677 32.7293 76.3672 32.7605 76.3664 32.7927C76.36 33.6653 76.6789 34.4288 77.2858 35.0515C77.5561 35.3211 77.8639 35.5275 78.1838 35.7321C78.2744 35.5344 78.3157 35.3263 78.3619 35.1147C78.3664 35.0946 78.3709 35.0745 78.3755 35.0541C78.6564 33.7822 78.8247 32.4985 78.9304 31.2007C78.9324 31.1763 78.9345 31.1516 78.9365 31.1265C78.9797 30.5926 79.0118 30.0583 79.0408 29.5236C79.0482 29.3935 79.0554 29.2636 79.0627 29.1334C79.0844 28.7499 79.1059 28.3661 79.1271 27.9827C79.1437 27.6827 79.1602 27.3829 79.1775 27.083C79.1846 26.9552 79.1918 26.8271 79.1986 26.6991C79.2334 26.0606 79.2819 25.4255 79.3459 24.7894C79.4275 23.9808 79.4903 23.1707 79.5352 22.359C79.5501 22.0927 79.5694 21.827 79.5902 21.5612C79.6046 21.3749 79.6167 21.189 79.6261 21.0022C79.7365 18.8524 80.0748 16.6445 81.0889 14.725C81.1045 14.6954 81.1204 14.6655 81.1364 14.6347C81.1745 14.5624 81.2126 14.4897 81.2508 14.4174C80.7545 14.0919 80.2738 13.9076 79.6986 13.7695ZM82.4582 15.2918C81.0072 17.6815 80.6893 20.6196 80.3402 24.9337C80.3294 25.1335 80.316 25.3328 80.2983 25.5322C80.2796 25.7473 80.2699 25.9619 80.2633 26.1779C80.2538 26.4686 80.2359 26.7586 80.2186 27.0486C80.1986 27.3885 80.1794 27.7281 80.1688 28.0685C80.1619 28.2825 80.1501 28.4963 80.1362 28.7099C80.1243 28.9024 80.117 29.0949 80.1101 29.2878C80.0983 29.6278 80.0811 29.9671 80.0612 30.3067C80.0595 30.3362 80.0578 30.3657 80.0561 30.3959C80.0279 30.8829 79.9916 31.3683 79.9454 31.8537C79.9286 32.0341 79.9127 32.2143 79.8966 32.3947C79.9808 32.3206 80.0053 32.2621 80.0503 32.16C80.0666 32.1244 80.0825 32.0889 80.0987 32.0521C80.1071 32.0332 80.1157 32.0141 80.1245 31.9944C80.2759 31.6544 80.4341 31.3185 80.602 30.9863C80.6114 30.9676 80.6208 30.9489 80.6304 30.9297C80.6895 30.8131 80.7491 30.6964 80.8083 30.5796C80.8621 30.4741 80.9156 30.3684 80.9691 30.2628C81.186 29.8352 81.4037 29.408 81.6222 28.9814C83.5377 25.2918 83.5377 25.2918 84.5241 18.4371C84.5194 18.4163 84.5147 18.3959 84.5103 18.3745C84.2313 17.1865 83.4611 15.9978 82.4582 15.2918ZM74.5197 20.886C74.1491 21.6532 73.989 22.5385 73.9334 23.3844C73.9303 23.4312 73.9303 23.4312 73.9271 23.4786C73.8421 24.7888 74.0409 26.1848 74.4817 27.4276C74.5415 27.6001 74.5962 27.7742 74.6517 27.9481C74.6744 27.9495 74.6971 27.9509 74.7206 27.9524C75.0901 26.0512 75.2038 24.136 74.8577 22.2159C74.8508 22.1747 74.8439 22.1335 74.837 22.0923C74.7872 21.806 74.72 21.5264 74.6442 21.2462C74.635 21.2121 74.6259 21.1785 74.6164 21.1436C74.5918 20.9996 74.5918 20.9996 74.5197 20.886ZM58.5684 12.7403C58.5465 12.7351 58.5243 12.7297 58.5013 12.7243C58.355 12.6898 58.2089 12.6569 58.062 12.6253C58.0141 12.615 57.966 12.6042 57.9179 12.5931C57.2635 12.4433 56.6545 12.6701 56.0924 13.0129C55.0216 13.722 54.5583 14.878 54.3032 16.0889C53.9872 17.6805 54.0764 19.369 54.2789 20.9732C54.2825 21.0004 54.2859 21.0272 54.2892 21.0549C54.3133 21.2455 54.3392 21.436 54.3657 21.6261C54.3692 21.6497 54.3724 21.6732 54.3757 21.6971C54.3948 21.8315 54.4147 21.9657 54.435 22.0998C54.4455 22.17 54.455 22.2401 54.4644 22.3104C54.5156 22.6708 54.6018 23.017 54.701 23.3672C54.7535 23.5525 54.8003 23.7359 54.8364 23.9248C54.8599 24.0423 54.8926 24.1569 54.9251 24.2718C54.9735 24.4455 55.0165 24.6182 55.0497 24.7955C55.069 24.8924 55.0961 24.9869 55.1229 25.0821C55.1428 25.1574 55.1585 25.2328 55.1735 25.3095C55.2065 25.4772 55.2453 25.6435 55.2856 25.8097C55.2992 25.8647 55.3123 25.9198 55.3256 25.9747C55.3331 26.0056 55.3407 26.0369 55.3482 26.0689C55.3687 26.1534 55.3882 26.2381 55.4078 26.3228C55.501 26.7231 55.6037 27.1204 55.7119 27.5169C55.7392 27.6173 55.7661 27.7177 55.7934 27.8182C55.8109 27.8829 55.8286 27.9481 55.8464 28.013C55.8542 28.0427 55.862 28.0719 55.8702 28.1022C55.916 28.2687 55.9668 28.4321 56.0243 28.5951C56.0541 28.6801 56.0817 28.7658 56.1092 28.8516C56.1771 29.0585 56.2523 29.2618 56.3328 29.464C56.346 29.4968 56.346 29.4968 56.3591 29.5303C56.9543 31.0165 57.8126 32.3641 59.0649 33.3819C59.1029 33.413 59.1407 33.444 59.1784 33.475C60.6221 34.66 62.1288 35.7717 63.7073 36.7714C63.7407 36.7927 63.7739 36.8137 63.808 36.8355C65.8945 38.1625 68.1312 39.3606 70.4463 40.2366C70.6432 39.7152 70.7946 39.1373 70.7632 38.5756C70.7615 38.5452 70.76 38.5145 70.7582 38.483C70.7309 38.2041 70.6234 37.9243 70.4235 37.7213C69.8 37.2084 68.92 37.1855 68.1532 37.0981C66.7039 36.933 65.3261 36.6659 64.0149 35.9915C63.9811 35.9741 63.947 35.9565 63.9118 35.9384C62.5434 35.1859 61.5579 34.0105 60.677 32.7523C60.6499 32.7132 60.6499 32.7132 60.6218 32.6736C60.3452 32.2753 60.1045 31.8575 59.8683 31.4343C59.852 31.405 59.8356 31.3761 59.8191 31.346C59.5992 30.9527 59.4032 30.5537 59.2241 30.1404C59.2067 30.1002 59.1891 30.0602 59.1714 30.0199C58.9631 29.5428 58.7798 29.0558 58.6209 28.5605C58.6033 28.5064 58.5854 28.4528 58.5661 28.3991C58.4837 28.1686 58.4192 27.9331 58.3556 27.6967C58.3369 27.6271 58.3177 27.5571 58.2988 27.4873C58.2349 27.2526 58.1767 27.0186 58.1324 26.7795C58.1229 26.7329 58.1133 26.6866 58.1034 26.6401C58.0335 26.299 57.9806 25.9582 57.9388 25.6128C57.9315 25.5544 57.9245 25.4961 57.9171 25.4379C57.8645 25.0199 57.8263 24.6042 57.8121 24.1832C57.8112 24.1558 57.8103 24.1283 57.8094 24.1001C57.7169 21.2829 58.3418 18.549 60.1822 15.1544C60.2026 15.1221 60.2231 15.0897 60.2441 15.0564C60.2839 14.9943 60.3238 14.9326 60.3642 14.8707C60.5574 14.5699 60.7074 14.2689 60.6438 13.9031C60.5558 13.6158 60.3414 13.4087 60.0905 13.2514C59.6156 12.9988 59.0888 12.8635 58.5684 12.7403ZM67.3218 21.3048C67.2878 21.4008 67.2613 21.4943 67.2426 21.5946C67.2375 21.6221 67.2323 21.6496 67.2269 21.678C67.2187 21.7226 67.2187 21.7226 67.2101 21.7683C67.2043 21.8001 67.1983 21.8314 67.1923 21.8641C67.1728 21.9688 67.1534 22.0735 67.1342 22.1784C67.1277 22.2144 67.1211 22.2506 67.1142 22.2878C66.8436 23.7624 66.6023 25.2437 66.4858 26.7399C66.4768 26.8518 66.4674 26.9633 66.4582 27.075C66.4196 27.5478 66.4018 28.0173 66.405 28.4919C66.405 28.5653 66.4047 28.6388 66.4033 28.7122C66.3913 29.5974 66.4764 30.5016 66.6867 31.3638C66.6925 31.3877 66.6983 31.4116 66.7044 31.4364C66.9591 32.4806 67.4482 33.5297 68.389 34.1281C68.9319 34.4586 69.5845 34.6889 70.2273 34.6845C70.3954 34.6153 70.5124 34.4793 70.5937 34.3205C70.8928 33.5893 70.7907 32.7251 70.6766 31.9638C70.6657 31.8912 70.6555 31.8186 70.6455 31.7458C70.5821 31.2872 70.4919 30.8348 70.3923 30.3826C70.3787 30.318 70.3648 30.2529 70.3509 30.1881C70.2596 29.7648 70.1598 29.3452 70.0461 28.9274C70.0332 28.8799 70.0203 28.8323 70.0074 28.7848C69.9808 28.6865 69.9541 28.5881 69.9271 28.4895C69.8932 28.3643 69.8592 28.239 69.8254 28.1134C69.799 28.0159 69.7724 27.9179 69.7459 27.8204C69.7334 27.7741 69.7209 27.7279 69.7083 27.6816C69.6477 27.4573 69.5864 27.2343 69.5068 27.0156C69.4828 26.9454 69.4633 26.8753 69.4445 26.8034C69.4125 26.6803 69.3726 26.5616 69.3303 26.4414C69.2882 26.3167 69.2494 26.1911 69.2106 26.0655C69.1494 25.8675 69.0863 25.6704 69.0166 25.4748C69.0028 25.4356 68.9889 25.3967 68.9751 25.3576C68.9509 25.2901 68.9269 25.2223 68.9027 25.1548C68.8428 24.9862 68.7837 24.8173 68.7247 24.6481C68.5958 24.2783 68.4647 23.9104 68.316 23.5476C68.2597 23.4098 68.2066 23.2713 68.1556 23.1316C68.0699 22.8988 67.9763 22.6699 67.8783 22.4417C67.8617 22.403 67.8617 22.403 67.8449 22.3636C67.6523 21.7814 67.6523 21.7814 67.3218 21.3048ZM72.4429 30.5381C72.4221 30.6605 72.4184 30.7751 72.4228 30.8992C72.4239 30.9374 72.4253 30.9758 72.4265 31.0152C72.4281 31.0562 72.4293 31.0973 72.4308 31.1386C72.4322 31.1813 72.4336 31.2239 72.435 31.2666C72.4441 31.5332 72.4548 31.7996 72.4668 32.0661C72.48 32.3645 72.4888 32.6632 72.4973 32.9617C72.4984 33 72.4996 33.0386 72.5006 33.0782C72.5022 33.1298 72.5022 33.1298 72.5038 33.1822C72.5059 33.2483 72.5097 33.3146 72.514 33.3806C72.6184 33.4044 72.6532 33.3886 72.7469 33.3332C72.9786 33.1407 73.0144 32.8748 73.0435 32.5871C73.0498 32.2666 72.9819 31.9642 72.9037 31.6553C72.8967 31.6236 72.8894 31.5917 72.8821 31.5587C72.7952 31.1983 72.6355 30.855 72.4429 30.5381ZM74.0599 35.337C74.0066 35.3793 73.9533 35.4216 73.8999 35.4641C73.8702 35.4877 73.8403 35.5109 73.8098 35.5355C73.4993 35.7977 73.2742 36.2334 73.2386 36.6359C73.2059 37.5174 73.6516 38.2655 74.1597 38.9578C74.1751 38.9787 74.1903 38.9999 74.2061 39.0214C74.278 39.086 74.3284 39.0896 74.4239 39.0933C74.4921 39.0859 74.4921 39.0859 74.558 39.0675C74.5825 39.0615 74.6071 39.0554 74.6323 39.0487C74.6577 39.0418 74.6832 39.0348 74.7094 39.0276C74.7487 39.017 74.7487 39.017 74.7889 39.0061C75.1089 38.9153 75.3602 38.7877 75.5572 38.5132C75.7063 38.229 75.6556 37.9374 75.5679 37.6414C75.3523 36.9676 74.8785 36.3838 74.4597 35.8228C74.4428 35.8002 74.4261 35.7779 74.4089 35.7545C74.3612 35.6907 74.313 35.6271 74.2653 35.5634C74.2434 35.5344 74.2434 35.5344 74.221 35.5048C74.1517 35.4091 74.1517 35.4091 74.0599 35.337ZM72.6211 39.4355C72.5394 39.7273 72.4802 40.0225 72.4208 40.3194C72.411 40.3684 72.4013 40.4174 72.3913 40.4663C72.3675 40.5848 72.3439 40.7034 72.3201 40.8219C72.4786 40.7933 72.6369 40.7637 72.7946 40.7303C72.8463 40.7193 72.8463 40.7193 72.899 40.7083C72.934 40.7008 72.9694 40.6933 73.0052 40.6856C73.2332 40.6374 73.4612 40.5903 73.6904 40.5492C73.6654 40.4565 73.6417 40.4314 73.5748 40.3644C73.5552 40.3446 73.5354 40.3246 73.5151 40.3041C73.4938 40.2829 73.4722 40.2616 73.4503 40.2397C73.4174 40.2065 73.4174 40.2065 73.3839 40.173C73.3377 40.1265 73.2913 40.0802 73.2449 40.0339C73.1735 39.9629 73.1024 39.8913 73.0312 39.8201C72.9862 39.775 72.9413 39.7299 72.8966 39.6849C72.875 39.6636 72.8536 39.642 72.8317 39.6201C72.8118 39.6001 72.7921 39.5806 72.7717 39.5603C72.7454 39.5341 72.7454 39.5341 72.7187 39.5074C72.6762 39.4644 72.6762 39.4644 72.6211 39.4355Z" fill="#FDFAF9"/>
<path d="M16.4418 37.5292H14.3226L13.3872 35.6659L12.218 37.5292H10.1134L8.16959 27H10.3034L11.7357 34.3645L13.3872 31.466L15.0534 34.3645L16.4857 27H18.6195L16.4418 37.5292Z" fill="#FDFAF9"/>
<path d="M20.0013 27H22.0621V37.5292H20.0013V27Z" fill="#FDFAF9"/>
<path d="M34.1679 37.5292H23.7618V27H25.8226V35.3997H34.1679V37.5292Z" fill="#FDFAF9"/>
<path d="M44.2679 28.1239C44.5992 28.4394 44.8574 28.8189 45.0426 29.2626C45.2374 29.6964 45.3349 30.1795 45.3349 30.7118V33.8617C45.3349 34.3645 45.2374 34.8427 45.0426 35.2962C44.8477 35.7398 44.5846 36.1292 44.2533 36.4644C43.9318 36.7898 43.5518 37.051 43.1133 37.2482C42.6749 37.4355 42.2072 37.5292 41.7103 37.5292H34.9726V27H41.7103C42.2072 27 42.6749 27.1035 43.1133 27.3106C43.5518 27.5176 43.9367 27.7887 44.2679 28.1239ZM43.2741 30.7118C43.2741 30.5048 43.2303 30.3076 43.1426 30.1203C43.0549 29.9231 42.938 29.7555 42.7918 29.6175C42.6554 29.4696 42.4898 29.3513 42.2949 29.2626C42.1098 29.1739 41.9149 29.1295 41.7103 29.1295H37.048V35.4293H41.7103C41.9246 35.4293 42.1244 35.3898 42.3095 35.311C42.5044 35.2222 42.67 35.1039 42.8064 34.956C42.9526 34.8082 43.0646 34.6406 43.1426 34.4532C43.2303 34.2659 43.2741 34.0687 43.2741 33.8617V30.7118Z" fill="#FDFAF9"/>
<path d="M9.32455 42.9517C9.65583 43.2968 9.91404 43.6911 10.0992 44.1348C10.2843 44.5784 10.3769 45.0566 10.3769 45.5692C10.3769 46.072 10.2794 46.5452 10.0845 46.9889C9.89942 47.4325 9.64122 47.822 9.30994 48.1572C8.9884 48.4924 8.60353 48.7586 8.15533 48.9557C7.71687 49.143 7.24431 49.2367 6.73764 49.2367H2.06076V52.3866H0V41.887H6.73764C7.24431 41.887 7.71687 41.9806 8.15533 42.1679C8.59379 42.3553 8.98353 42.6165 9.32455 42.9517ZM6.73764 47.122C7.18584 47.122 7.5561 46.9741 7.84841 46.6783C8.14071 46.3826 8.28687 46.0129 8.28687 45.5692C8.28687 45.3326 8.24302 45.1207 8.15533 44.9333C8.07738 44.7362 7.96533 44.5686 7.81918 44.4305C7.67302 44.2827 7.50738 44.1693 7.32226 44.0904C7.13713 44.0115 6.94226 43.9721 6.73764 43.9721H2.06076V47.122H6.73764Z" fill="#FDFAF9"/>
<path d="M14.8463 52.3866C14.3494 52.3866 13.8768 52.2929 13.4286 52.1056C12.9901 51.9084 12.6053 51.6472 12.274 51.3218C11.9524 50.9866 11.6942 50.5972 11.4994 50.1536C11.3143 49.7001 11.2217 49.2219 11.2217 48.7191V45.5544C11.2217 45.0516 11.3143 44.5784 11.4994 44.1348C11.6942 43.6813 11.9524 43.2918 12.274 42.9665C12.6053 42.6313 12.9901 42.3701 13.4286 42.1827C13.8768 41.9856 14.3494 41.887 14.8463 41.887H17.9739C18.4709 41.887 18.9386 41.9856 19.377 42.1827C19.8252 42.3701 20.2101 42.6313 20.5316 42.9665C20.8629 43.2918 21.1211 43.6813 21.3062 44.1348C21.5011 44.5784 21.5985 45.0516 21.5985 45.5544V48.7191C21.5985 49.2219 21.5011 49.7001 21.3062 50.1536C21.1211 50.5972 20.8629 50.9866 20.5316 51.3218C20.2101 51.6472 19.8252 51.9084 19.377 52.1056C18.9386 52.2929 18.4709 52.3866 17.9739 52.3866H14.8463ZM14.2324 44.0904C14.057 44.1791 13.8963 44.2974 13.7501 44.4453C13.604 44.5932 13.4871 44.7608 13.3994 44.9481C13.3117 45.1256 13.2678 45.3277 13.2678 45.5544V48.7191C13.2678 48.936 13.3068 49.1381 13.3847 49.3254C13.4724 49.5128 13.5894 49.6804 13.7355 49.8282C13.8817 49.9663 14.0473 50.0747 14.2324 50.1536C14.4273 50.2324 14.6319 50.2719 14.8463 50.2719H17.9739C18.4124 50.2719 18.7778 50.124 19.0701 49.8282C19.3624 49.5325 19.5085 49.1628 19.5085 48.7191V45.5544C19.5085 45.3375 19.4696 45.1354 19.3916 44.9481C19.3137 44.7509 19.2016 44.5784 19.0555 44.4305C18.9191 44.2827 18.7583 44.1693 18.5732 44.0904C18.388 44.0017 18.1883 43.9573 17.9739 43.9573H14.8463C14.6222 43.9573 14.4176 44.0017 14.2324 44.0904Z" fill="#FDFAF9"/>
<path d="M32.5027 42.9517C32.8339 43.2968 33.0921 43.6911 33.2773 44.1348C33.4624 44.5784 33.555 45.0566 33.555 45.5692C33.555 46.072 33.4575 46.5452 33.2627 46.9889C33.0775 47.4325 32.8193 47.822 32.488 48.1572C32.1665 48.4924 31.7816 48.7586 31.3334 48.9557C30.895 49.143 30.4224 49.2367 29.9158 49.2367H25.2389V52.3866H23.1781V41.887H29.9158C30.4224 41.887 30.895 41.9806 31.3334 42.1679C31.7719 42.3553 32.1616 42.6165 32.5027 42.9517ZM29.9158 47.122C30.364 47.122 30.7342 46.9741 31.0265 46.6783C31.3188 46.3826 31.465 46.0129 31.465 45.5692C31.465 45.3326 31.4211 45.1207 31.3334 44.9333C31.2555 44.7362 31.1434 44.5686 30.9973 44.4305C30.8511 44.2827 30.6855 44.1693 30.5004 44.0904C30.3152 44.0115 30.1204 43.9721 29.9158 43.9721H25.2389V47.122H29.9158Z" fill="#FDFAF9"/>
<path d="M43.8705 42.9517C44.2018 43.2968 44.46 43.6911 44.6451 44.1348C44.8302 44.5784 44.9228 45.0566 44.9228 45.5692C44.9228 46.072 44.8254 46.5452 44.6305 46.9889C44.4454 47.4325 44.1872 47.822 43.8559 48.1572C43.5343 48.4924 43.1495 48.7586 42.7013 48.9557C42.2628 49.143 41.7903 49.2367 41.2836 49.2367H36.6067V52.3866H34.5459V41.887H41.2836C41.7903 41.887 42.2628 41.9806 42.7013 42.1679C43.1397 42.3553 43.5295 42.6165 43.8705 42.9517ZM41.2836 47.122C41.7318 47.122 42.102 46.9741 42.3943 46.6783C42.6867 46.3826 42.8328 46.0129 42.8328 45.5692C42.8328 45.3326 42.789 45.1207 42.7013 44.9333C42.6233 44.7362 42.5113 44.5686 42.3651 44.4305C42.219 44.2827 42.0533 44.1693 41.8682 44.0904C41.6831 44.0115 41.4882 43.9721 41.2836 43.9721H36.6067V47.122H41.2836Z" fill="#FDFAF9"/>
<path d="M55.5891 41.8574L51.4383 47.403V52.3866H49.363V47.403L45.2415 41.8574H47.8576L50.4445 45.2883L52.9583 41.8574H55.5891Z" fill="#FDFAF9"/>
</svg>
