<svg width="50" height="35" viewBox="0 0 50 35" fill="none" xmlns="http://www.w3.org/2000/svg">
<path d="M45.1784 8.9192C45.1973 8.93009 45.1973 8.93009 45.2166 8.94121C45.3965 9.04529 45.57 9.15021 45.7236 9.29158C45.7329 9.29994 45.7421 9.30809 45.7515 9.31653C46.0211 9.56102 46.2243 9.85407 46.3417 10.1981C46.3477 10.2143 46.3536 10.2305 46.3596 10.2471C46.751 11.3607 46.5271 12.8901 46.4033 14.0458C46.4016 14.0623 46.4016 14.0623 46.3999 14.0792C46.292 15.0877 46.1024 16.0946 45.7873 17.0589C45.784 17.0693 45.7807 17.0794 45.7772 17.09C45.6609 17.4448 45.5273 17.7911 45.3774 18.1329C45.3656 18.1595 45.3541 18.1859 45.3426 18.2125C44.8134 19.4155 43.9062 20.5722 42.6536 21.0677C42.6231 21.0789 42.5926 21.0901 42.5618 21.101C42.5525 21.1045 42.5432 21.108 42.5334 21.1116C42.2768 21.207 42.0131 21.2834 41.7407 21.3184C41.7212 21.3214 41.7017 21.3241 41.6816 21.3271C40.8879 21.4408 40.016 21.3536 39.2675 21.0608C38.8059 20.8657 38.8059 20.8657 38.3228 20.9054C38.252 20.9371 38.2121 20.9832 38.1655 21.0428C37.8951 21.3739 37.5311 21.5363 37.1358 21.6755C36.9867 21.728 36.8391 21.7834 36.6929 21.8439C36.6828 21.8481 36.6725 21.8523 36.6621 21.8566C36.3428 21.9885 36.0678 22.1762 35.9092 22.4907C35.8564 22.6326 35.8182 22.7807 35.776 22.926C35.4441 24.0699 35.0378 25.191 34.5262 26.2668C34.5186 26.2828 34.5186 26.2828 34.511 26.299C34.4764 26.3717 34.4412 26.4441 34.4056 26.5162C34.4009 26.5259 34.3961 26.5358 34.3912 26.5457C34.2794 26.7746 34.1507 26.9945 34.0234 27.2149C33.9981 27.2587 33.973 27.3025 33.9479 27.3463C33.7403 27.7093 33.5225 28.0631 33.2696 28.397C33.2632 28.4055 33.2567 28.414 33.2502 28.4228C32.4961 29.4231 31.5705 30.2509 30.3478 30.6097C30.3249 30.6166 30.3249 30.6166 30.3014 30.6236C30.1902 30.6547 30.0776 30.6727 29.9631 30.689C29.9439 30.692 29.9245 30.695 29.9046 30.698C29.6698 30.7314 29.4368 30.7405 29.1997 30.7314C29.1755 30.7306 29.1755 30.7306 29.1509 30.7297C29.1287 30.7286 29.1287 30.7286 29.1061 30.7276C29.0929 30.7269 29.0796 30.7263 29.066 30.7257C29.0558 30.7241 29.0458 30.7224 29.0352 30.7207C29.0161 30.692 29.0161 30.692 29.0257 30.6423C29.1052 30.3414 29.2706 30.1222 29.5405 29.9649C29.6112 29.9253 29.6834 29.8884 29.7556 29.8513C30.8911 29.2667 31.8008 28.3559 32.5456 27.3341C32.5555 27.3205 32.5555 27.3205 32.5657 27.3067C32.8436 26.9265 33.0873 26.5245 33.3213 26.1163C33.3422 26.0798 33.3632 26.0433 33.3841 26.0068C33.5836 25.6598 33.7797 25.312 33.9567 24.953C33.979 24.9079 34.0013 24.8626 34.0236 24.8175C34.1688 24.524 34.3136 24.2303 34.4559 23.9354C34.4717 23.9028 34.4875 23.8701 34.5035 23.8375C34.5962 23.647 34.6702 23.4534 34.7367 23.2522C34.7525 23.2048 34.7685 23.1573 34.7846 23.1099C35.0163 22.4294 35.0163 22.4294 34.9034 21.7382C34.6751 21.3404 34.0909 21.1517 33.7016 20.9505C33.5274 20.8606 33.3534 20.7702 33.1794 20.6799C33.1624 20.671 33.1452 20.6621 33.1276 20.653C32.849 20.5083 32.5712 20.3623 32.2948 20.2133C32.2775 20.204 32.2602 20.1947 32.2424 20.185C32.0604 20.0869 31.8793 19.9873 31.699 19.8862C31.6711 19.8706 31.6433 19.8551 31.6155 19.8396C31.529 19.7911 31.4426 19.7424 31.3564 19.6934C31.2031 19.6068 31.053 19.5285 30.8861 19.4718C29.7832 19.0893 28.925 17.8947 28.354 16.9289C28.3333 16.894 28.3122 16.8595 28.291 16.8251C28.1125 16.535 27.9555 16.2348 27.8036 15.9304C27.7969 15.917 27.7902 15.9033 27.7832 15.8894C27.5306 15.3834 27.3071 14.862 27.116 14.3302C27.0926 14.2654 27.0683 14.2012 27.0431 14.137C27.0092 14.049 26.9802 13.9598 26.9526 13.8696C26.9354 13.8132 26.9172 13.7573 26.8977 13.7015C26.8093 13.445 26.7383 13.183 26.6675 12.9213C26.6524 12.865 26.6371 12.8087 26.6218 12.7525C26.6119 12.7161 26.602 12.6797 26.5923 12.6435C26.5877 12.627 26.5832 12.6104 26.5786 12.5933C26.555 12.5058 26.5341 12.4184 26.5172 12.3293C26.5072 12.2778 26.4951 12.227 26.4832 12.176C26.4617 12.0819 26.4443 11.9878 26.4292 11.8925C26.42 11.8378 26.4094 11.7836 26.3984 11.7292C26.3659 11.5703 26.3424 11.4118 26.3227 11.2509C26.3174 11.2079 26.3115 11.165 26.3056 11.1221C26.2514 10.7229 26.2244 10.3168 26.226 9.91423C26.2262 9.89908 26.2263 9.88386 26.2262 9.86822C26.2328 8.9424 26.3765 7.82502 27.0732 7.1432C27.3881 6.84342 27.7588 6.63283 28.1952 6.56527C28.2231 6.56081 28.2231 6.56081 28.2516 6.55632C28.4066 6.5332 28.559 6.52686 28.7157 6.52886C28.7329 6.52904 28.7329 6.52904 28.7505 6.5291C29.2379 6.53265 29.7117 6.66065 30.1737 6.80734C30.3866 6.87422 30.6261 6.94317 30.8399 6.84657C31.0107 6.75245 31.1269 6.61353 31.2293 6.45191C31.4399 6.12207 31.7573 5.85744 32.134 5.73642C32.1551 5.72948 32.1551 5.72948 32.1764 5.72247C32.3362 5.67465 32.4923 5.66971 32.6455 5.74258C32.7622 5.81544 32.8253 5.92029 32.8623 6.05052C32.8822 6.16026 32.8858 6.27049 32.8886 6.3815C32.8935 6.5645 32.9297 6.73167 33.0632 6.86799C33.1606 6.95204 33.26 6.98869 33.3885 6.99264C33.4291 6.98843 33.4673 6.98089 33.5071 6.97249C33.5161 6.97767 33.5248 6.98269 33.5339 6.98794C33.5457 6.97986 33.5457 6.97986 33.5575 6.97143C33.5949 6.94814 33.6327 6.9308 33.673 6.91313C33.7464 6.87975 33.8109 6.84204 33.8767 6.79578C33.9199 6.85621 33.9359 6.91631 33.9548 6.98713C33.9582 7.00029 33.9617 7.01333 33.9653 7.02691C34.0467 7.34342 34.064 7.67377 34.055 7.99911C34.0543 8.03165 34.0538 8.0642 34.0535 8.09684C34.0499 8.33695 34.0218 8.57568 33.9982 8.81434C33.9035 9.77262 33.9425 10.6133 34.5616 11.4003C34.6095 11.4614 34.6095 11.4614 34.6693 11.5088C34.6702 11.4922 34.6711 11.4756 34.6718 11.4585C34.6909 11.0769 34.7194 10.698 34.7623 10.3185C34.7684 10.2637 34.774 10.2089 34.7794 10.1541C34.8285 9.66412 34.916 9.1785 35.0199 8.69768C35.0272 8.6641 35.0342 8.63037 35.0412 8.59664C35.0459 8.57421 35.0507 8.55177 35.0554 8.52933C35.0574 8.51912 35.0595 8.50899 35.0617 8.49838C35.084 8.3948 35.131 8.31444 35.1902 8.2279C35.1962 8.21911 35.2022 8.21019 35.2082 8.20105C35.6059 7.60976 36.2063 7.20691 36.8858 7.00379C36.9357 6.98866 36.9849 6.97237 37.0341 6.95539C37.101 6.93318 37.167 6.91774 37.2363 6.90546C37.2809 6.89736 37.3249 6.88729 37.3691 6.87717C37.779 6.79218 38.2073 6.77476 38.625 6.78897C38.6409 6.78962 38.6567 6.79005 38.6728 6.79051C39.6752 6.82825 40.6805 7.09874 41.5809 7.53772C42.1178 7.79951 42.6755 7.98317 43.2443 8.1616C44.2936 8.49042 44.2936 8.49042 44.7491 8.69346C44.7601 8.69821 44.7711 8.70283 44.7825 8.70781C44.9195 8.7683 45.0487 8.84449 45.1784 8.9192ZM43.7461 9.00217C43.7322 8.99717 43.7181 8.99223 43.7038 8.98713C43.6193 8.957 43.6193 8.957 43.5349 8.92707C43.3162 8.84936 43.1022 8.76533 42.8915 8.66711C42.9077 8.72681 42.9239 8.78638 42.9404 8.84589C43.0111 9.10193 43.0111 9.10193 43.0308 9.21104C43.0392 9.25503 43.0492 9.29857 43.0591 9.34245C43.0838 9.45613 43.1007 9.5705 43.1162 9.68569C43.1195 9.70938 43.1227 9.73307 43.126 9.75677C43.3209 11.128 43.0232 12.5175 42.1098 14.6476C42.101 14.6652 42.101 14.6652 42.0922 14.6832C41.9371 15.0005 41.7699 15.3104 41.5935 15.6164C41.5736 15.6511 41.5535 15.6858 41.5336 15.7206C41.4803 15.8133 41.4268 15.906 41.3732 15.9984C41.3454 16.0466 41.3176 16.0948 41.2898 16.143C40.9399 16.7495 40.5838 17.3519 40.2201 17.9503C40.065 18.2052 39.911 18.4606 39.7613 18.7189C39.7549 18.7301 39.7482 18.7413 39.7416 18.7528C39.6499 18.9108 39.5648 19.0714 39.4833 19.235C39.7574 19.2945 40.069 19.2528 40.3383 19.1873C40.3922 19.1746 40.3922 19.1746 40.4488 19.1662C40.878 19.0959 41.3036 18.8145 41.6312 18.5424C41.6396 18.5356 41.6478 18.5288 41.6565 18.5217C41.8829 18.3338 42.0808 18.1155 42.2644 17.8862C42.2739 17.8743 42.2835 17.8623 42.2933 17.85C42.4964 17.5912 42.6681 17.3141 42.8316 17.0291C42.842 17.0111 42.8521 16.9932 42.8625 16.9753C43.038 16.6697 43.2013 16.3608 43.3443 16.0386C43.3502 16.0255 43.356 16.0123 43.3621 15.9988C43.7582 15.1073 44.0837 14.1879 44.4145 13.2708C44.9357 11.8262 44.9357 11.8262 45.2625 11.1807C45.4381 10.8337 45.592 10.4927 45.4729 10.0975C45.215 9.44349 44.3467 9.21558 43.7461 9.00217ZM39.8473 7.88474C39.8197 7.87786 39.8197 7.87786 39.7913 7.87085C39.1367 7.70848 38.4284 7.59051 37.7566 7.70607C37.7454 7.70792 37.7342 7.70977 37.7227 7.7118C37.0299 7.82742 36.4436 8.15649 36.03 8.72943C36.0128 8.75529 35.9959 8.78138 35.9792 8.80755C35.9638 8.83201 35.9638 8.83201 35.948 8.85671C35.5972 9.42724 35.4565 10.1019 35.4035 10.7624C35.4021 10.7802 35.4007 10.7979 35.3992 10.8162C35.3582 11.3457 35.3754 11.8824 35.4329 12.4106C35.4353 12.4326 35.4353 12.4326 35.4377 12.4551C35.4589 12.6515 35.4832 12.8473 35.5139 13.0425C35.516 13.0551 35.5179 13.0675 35.5199 13.0804C35.5463 13.2478 35.5749 13.4148 35.6063 13.5813C35.6126 13.6149 35.6189 13.6485 35.625 13.6822C35.6489 13.8109 35.6751 13.9388 35.705 14.0663C35.7188 14.1254 35.7317 14.1846 35.7433 14.2443C35.7561 14.3105 35.7732 14.375 35.792 14.4398C35.8018 14.4779 35.8095 14.5151 35.8167 14.5537C35.8397 14.6711 35.8722 14.7859 35.9036 14.9012C35.9144 14.9408 35.9251 14.9804 35.9358 15.02C35.9426 15.0452 35.9494 15.0702 35.9563 15.0953C35.961 15.1131 35.961 15.1131 35.9658 15.1313C35.9743 15.1837 35.9743 15.1837 36.0034 15.2223C36.1281 14.9463 36.1163 14.6087 36.0888 14.3119C36.0847 14.2677 36.0811 14.2233 36.0773 14.1792C36.0642 14.0258 36.0508 13.8726 36.0356 13.7194C36.0243 13.6033 36.0144 13.4873 36.0078 13.3709C36.007 13.3597 36.0064 13.3483 36.0058 13.3368C35.993 13.0948 36.0064 12.8531 36.0234 12.612C36.0245 12.5974 36.0255 12.5829 36.0265 12.5681C36.0734 11.9005 36.1775 11.2467 36.4139 10.6188C36.4183 10.607 36.4228 10.5953 36.4273 10.5831C36.5764 10.197 36.8154 9.77349 37.1949 9.57488C37.3878 9.49227 37.5748 9.50269 37.7686 9.57968C38.2702 9.80365 38.5935 10.3453 38.8355 10.8112C38.8413 10.8224 38.8471 10.8335 38.8531 10.845C38.8898 10.9162 38.9249 10.9879 38.9594 11.0601C38.9643 11.07 38.9692 11.0801 38.9741 11.0904C39.037 11.2196 39.0884 11.3484 39.1296 11.486C39.1432 11.5309 39.1581 11.5746 39.1743 11.6186C39.3125 12.018 39.3289 12.4766 39.3098 12.8936C39.3093 12.9059 39.3088 12.9182 39.3082 12.931C39.2637 13.8549 38.9238 14.7362 38.6168 15.5969C38.2984 16.4509 38.2984 16.4509 38.1822 17.349C38.1819 17.3647 38.1816 17.3803 38.1813 17.3964C38.178 17.8326 38.3375 18.2144 38.6409 18.5258C38.7761 18.6605 38.93 18.7638 39.09 18.866C39.1353 18.7672 39.1559 18.6632 39.179 18.5573C39.1812 18.5473 39.1835 18.5372 39.1858 18.527C39.3263 17.8911 39.4104 17.2493 39.4633 16.6003C39.4642 16.5881 39.4653 16.5758 39.4663 16.5633C39.4879 16.2963 39.5039 16.0291 39.5184 15.7618C39.5221 15.6967 39.5257 15.6318 39.5294 15.5667C39.5403 15.3749 39.551 15.1831 39.5616 14.9913C39.5699 14.8413 39.5781 14.6915 39.5868 14.5415C39.5903 14.4776 39.5939 14.4135 39.5974 14.3495C39.6147 14.0303 39.639 13.7127 39.671 13.3947C39.7118 12.9904 39.7432 12.5853 39.7656 12.1795C39.7731 12.0464 39.7828 11.9135 39.7931 11.7806C39.8004 11.6875 39.8064 11.5945 39.8111 11.5011C39.8663 10.4262 40.0354 9.32227 40.5425 8.36251C40.5503 8.34771 40.5582 8.33277 40.5662 8.31736C40.5853 8.28121 40.6043 8.24486 40.6234 8.20871C40.3753 8.04595 40.1349 7.9538 39.8473 7.88474ZM41.2271 8.64592C40.5016 9.84073 40.3427 11.3098 40.1682 13.4669C40.1627 13.5667 40.156 13.6664 40.1472 13.7661C40.1379 13.8737 40.133 13.981 40.1297 14.089C40.125 14.2343 40.116 14.3793 40.1073 14.5243C40.0973 14.6942 40.0878 14.8641 40.0824 15.0342C40.079 15.1413 40.0731 15.2482 40.0662 15.355C40.0602 15.4512 40.0565 15.5475 40.0531 15.6439C40.0472 15.8139 40.0386 15.9836 40.0287 16.1534C40.0278 16.1681 40.027 16.1829 40.0261 16.198C40.012 16.4414 39.9938 16.6842 39.9707 16.9268C39.9623 17.017 39.9544 17.1071 39.9464 17.1973C39.9884 17.1603 40.0007 17.131 40.0232 17.08C40.0313 17.0622 40.0393 17.0444 40.0474 17.0261C40.0516 17.0166 40.0559 17.007 40.0603 16.9972C40.136 16.8272 40.2151 16.6592 40.2991 16.4932C40.3037 16.4838 40.3084 16.4745 40.3133 16.4648C40.3428 16.4066 40.3726 16.3482 40.4022 16.2898C40.4291 16.237 40.4558 16.1842 40.4826 16.1314C40.5911 15.9176 40.6999 15.704 40.8092 15.4907C41.7669 13.6459 41.7669 13.6459 42.2601 10.2186C42.2577 10.2081 42.2554 10.1979 42.2532 10.1873C42.1137 9.59323 41.7286 8.9989 41.2271 8.64592ZM37.2579 11.443C37.0726 11.8266 36.9926 12.2692 36.9647 12.6922C36.9632 12.7156 36.9632 12.7156 36.9616 12.7393C36.9191 13.3944 37.0185 14.0924 37.2389 14.7138C37.2688 14.8 37.2961 14.8871 37.3239 14.974C37.3353 14.9747 37.3466 14.9755 37.3583 14.9762C37.5431 14.0256 37.6 13.068 37.4269 12.1079C37.4235 12.0873 37.42 12.0667 37.4166 12.0461C37.3916 11.903 37.358 11.7632 37.3201 11.6231C37.3155 11.6061 37.311 11.5892 37.3062 11.5718C37.2939 11.4998 37.2939 11.4998 37.2579 11.443ZM29.2823 7.37017C29.2713 7.36756 29.2602 7.36487 29.2487 7.36216C29.1756 7.34491 29.1025 7.32844 29.029 7.31263C29.0051 7.30748 28.9811 7.30212 28.957 7.29656C28.6298 7.22165 28.3253 7.33505 28.0442 7.50647C27.5088 7.86102 27.2772 8.43898 27.1497 9.04445C26.9916 9.84027 27.0363 10.6845 27.1375 11.4866C27.1393 11.5002 27.141 11.5136 27.1426 11.5275C27.1547 11.6227 27.1677 11.718 27.1809 11.813C27.1826 11.8249 27.1842 11.8366 27.1859 11.8486C27.1954 11.9158 27.2054 11.9829 27.2156 12.0499C27.2208 12.085 27.2255 12.12 27.2302 12.1552C27.2558 12.3354 27.2989 12.5085 27.3486 12.6836C27.3748 12.7762 27.3982 12.8679 27.4163 12.9624C27.428 13.0211 27.4443 13.0784 27.4606 13.1359C27.4848 13.2227 27.5063 13.3091 27.5229 13.3977C27.5325 13.4462 27.5461 13.4934 27.5595 13.541C27.5695 13.5787 27.5773 13.6164 27.5848 13.6548C27.6013 13.7386 27.6207 13.8218 27.6409 13.9049C27.6476 13.9324 27.6542 13.9599 27.6608 13.9873C27.6646 14.0028 27.6684 14.0185 27.6722 14.0345C27.6824 14.0767 27.6922 14.1191 27.702 14.1614C27.7485 14.3615 27.7999 14.5602 27.854 14.7584C27.8676 14.8087 27.8811 14.8588 27.8947 14.9091C27.9035 14.9414 27.9123 14.974 27.9213 15.0065C27.9252 15.0213 27.929 15.036 27.9331 15.0511C27.956 15.1344 27.9815 15.2161 28.0102 15.2976C28.0251 15.34 28.0389 15.3829 28.0527 15.4258C28.0866 15.5292 28.1242 15.6309 28.1645 15.732C28.171 15.7484 28.171 15.7484 28.1776 15.7651C28.4752 16.5082 28.9043 17.1821 29.5305 17.6909C29.5495 17.7065 29.5684 17.722 29.5873 17.7375C30.3091 18.33 31.0625 18.8859 31.8517 19.3857C31.8684 19.3964 31.885 19.4068 31.902 19.4178C32.9453 20.0813 34.0636 20.6803 35.2212 21.1183C35.3197 20.8576 35.3953 20.5686 35.3797 20.2878C35.3788 20.2726 35.378 20.2572 35.3772 20.2415C35.3635 20.102 35.3098 19.9621 35.2098 19.8606C34.898 19.6042 34.4581 19.5927 34.0747 19.5491C33.35 19.4665 32.6611 19.3329 32.0055 18.9957C31.9886 18.987 31.9715 18.9783 31.954 18.9692C31.2697 18.5929 30.777 18.0053 30.3365 17.3761C30.323 17.3566 30.323 17.3566 30.3089 17.3368C30.1707 17.1376 30.0503 16.9288 29.9322 16.7172C29.9241 16.7025 29.9158 16.688 29.9076 16.673C29.7976 16.4763 29.6997 16.2769 29.6101 16.0702C29.6014 16.0501 29.5926 16.0301 29.5837 16.0099C29.4796 15.7714 29.3879 15.5279 29.3085 15.2803C29.2997 15.2532 29.2907 15.2264 29.2811 15.1996C29.2399 15.0843 29.2076 14.9665 29.1758 14.8483C29.1665 14.8135 29.1569 14.7786 29.1474 14.7437C29.1155 14.6263 29.0864 14.5093 29.0642 14.3898C29.0595 14.3665 29.0547 14.3433 29.0497 14.3201C29.0148 14.1495 28.9883 13.9791 28.9675 13.8064C28.9638 13.7772 28.9603 13.748 28.9566 13.7189C28.9303 13.5099 28.9112 13.3021 28.9041 13.0916C28.9036 13.0779 28.9032 13.0642 28.9028 13.0501C28.8565 11.6414 29.169 10.2745 30.0892 8.57718C30.0993 8.56107 30.1096 8.54484 30.1201 8.5282C30.14 8.49714 30.16 8.46628 30.1801 8.43537C30.2768 8.28496 30.3517 8.13444 30.32 7.95156C30.2759 7.80788 30.1688 7.70434 30.0433 7.62569C29.8059 7.49942 29.5424 7.43173 29.2823 7.37017ZM33.659 11.6524C33.642 11.7004 33.6287 11.7472 33.6194 11.7973C33.6168 11.811 33.6142 11.8248 33.6115 11.839C33.6074 11.8613 33.6074 11.8613 33.6031 11.8842C33.6002 11.9 33.5972 11.9157 33.5942 11.932C33.5845 11.9844 33.5747 12.0368 33.5652 12.0892C33.5619 12.1072 33.5586 12.1253 33.5552 12.1439C33.4198 12.8812 33.2992 13.6218 33.2409 14.37C33.2365 14.4259 33.2317 14.4817 33.2271 14.5375C33.2078 14.7739 33.1989 15.0087 33.2005 15.2459C33.2006 15.2826 33.2004 15.3194 33.1997 15.3561C33.1937 15.7987 33.2363 16.2508 33.3414 16.6819C33.3443 16.6939 33.3472 16.7058 33.3502 16.7182C33.4776 17.2403 33.7221 17.7648 34.1925 18.0641C34.464 18.2293 34.7903 18.3445 35.1117 18.3423C35.1957 18.3076 35.2542 18.2396 35.2949 18.1603C35.4445 17.7947 35.3934 17.3625 35.3364 16.9819C35.3309 16.9456 35.3258 16.9093 35.3208 16.8729C35.2891 16.6436 35.244 16.4174 35.1942 16.1913C35.1874 16.159 35.1805 16.1265 35.1735 16.0941C35.1278 15.8824 35.0779 15.6726 35.0211 15.4637C35.0146 15.4399 35.0082 15.4162 35.0018 15.3924C34.9884 15.3432 34.9751 15.294 34.9616 15.2448C34.9446 15.1821 34.9277 15.1195 34.9107 15.0567C34.8975 15.0079 34.8842 14.959 34.871 14.9102C34.8647 14.8871 34.8585 14.8639 34.8522 14.8408C34.8219 14.7286 34.7912 14.6171 34.7514 14.5078C34.7394 14.4727 34.7297 14.4376 34.7203 14.4017C34.7043 14.3402 34.6843 14.2808 34.6632 14.2207C34.6421 14.1584 34.6227 14.0956 34.6033 14.0328C34.5728 13.9337 34.5412 13.8352 34.5063 13.7374C34.4994 13.7178 34.4925 13.6984 34.4856 13.6788C34.4735 13.645 34.4615 13.6112 34.4494 13.5774C34.4194 13.4931 34.3899 13.4086 34.3604 13.3241C34.296 13.1392 34.2304 12.9552 34.1561 12.7738C34.1279 12.7049 34.1013 12.6357 34.0758 12.5658C34.033 12.4494 33.9862 12.3349 33.9372 12.2208C33.9289 12.2015 33.9289 12.2015 33.9205 12.1818C33.8242 11.8907 33.8242 11.8907 33.659 11.6524ZM36.2195 16.2691C36.2091 16.3303 36.2073 16.3875 36.2094 16.4496C36.21 16.4687 36.2107 16.4879 36.2113 16.5076C36.2121 16.5281 36.2127 16.5487 36.2134 16.5693C36.2142 16.5906 36.2149 16.612 36.2156 16.6333C36.2201 16.7666 36.2254 16.8998 36.2314 17.0331C36.238 17.1823 36.2424 17.3316 36.2467 17.4809C36.2472 17.5 36.2478 17.5193 36.2484 17.5391C36.2492 17.5649 36.2492 17.5649 36.2499 17.5911C36.251 17.6241 36.2529 17.6573 36.2551 17.6903C36.3072 17.7022 36.3246 17.6943 36.3715 17.6666C36.4873 17.5703 36.5052 17.4374 36.5198 17.2935C36.523 17.1333 36.489 16.9821 36.4499 16.8276C36.4464 16.8118 36.4428 16.7958 36.4391 16.7794C36.3956 16.5991 36.3158 16.4275 36.2195 16.2691ZM37.028 18.6685C37.0014 18.6896 36.9747 18.7108 36.948 18.732C36.9331 18.7439 36.9182 18.7555 36.9029 18.7677C36.7477 18.8989 36.6351 19.1167 36.6174 19.318C36.601 19.7587 36.8238 20.1327 37.0779 20.4789C37.0856 20.4894 37.0932 20.5 37.1011 20.5107C37.137 20.543 37.1622 20.5448 37.21 20.5467C37.2441 20.5429 37.2441 20.5429 37.277 20.5338C37.2893 20.5307 37.3016 20.5277 37.3142 20.5244C37.3269 20.5209 37.3396 20.5174 37.3528 20.5138C37.3724 20.5085 37.3724 20.5085 37.3925 20.5031C37.5525 20.4577 37.6781 20.3939 37.7767 20.2566C37.8512 20.1145 37.8259 19.9687 37.782 19.8207C37.6742 19.4838 37.4373 19.1919 37.2279 18.9114C37.2194 18.9001 37.2111 18.8889 37.2025 18.8772C37.1786 18.8454 37.1546 18.8135 37.1307 18.7817C37.1198 18.7672 37.1198 18.7672 37.1085 18.7524C37.0739 18.7046 37.0739 18.7046 37.028 18.6685ZM36.3086 20.7177C36.2677 20.8636 36.2381 21.0113 36.2084 21.1597C36.2036 21.1842 36.1987 21.2087 36.1937 21.2331C36.1818 21.2924 36.17 21.3517 36.1581 21.411C36.2374 21.3966 36.3165 21.3819 36.3954 21.3652C36.4212 21.3597 36.4212 21.3597 36.4475 21.3542C36.465 21.3504 36.4827 21.3466 36.5007 21.3428C36.6146 21.3187 36.7286 21.2952 36.8432 21.2746C36.8308 21.2282 36.8189 21.2157 36.7855 21.1822C36.7757 21.1723 36.7657 21.1623 36.7556 21.152C36.745 21.1415 36.7342 21.1308 36.7232 21.1199C36.7067 21.1033 36.7067 21.1033 36.69 21.0865C36.6669 21.0632 36.6437 21.0401 36.6205 21.0169C36.5848 20.9814 36.5493 20.9457 36.5136 20.91C36.4912 20.8875 36.4687 20.8649 36.4464 20.8425C36.4356 20.8318 36.4249 20.821 36.4139 20.8101C36.4039 20.8001 36.3941 20.7903 36.3839 20.7802C36.3707 20.7671 36.3707 20.7671 36.3574 20.7537C36.3361 20.7322 36.3361 20.7322 36.3086 20.7177Z" fill="#FDFAF9"/>
<path d="M8.87324 19.6862H7.72955L7.22475 18.6807L6.59375 19.6862H5.45795L4.40892 14.0039H5.56049L6.33347 17.9783L7.22475 16.4141L8.12393 17.9783L8.8969 14.0039H10.0485L8.87324 19.6862Z" fill="#FDFAF9"/>
<path d="M10.7942 14.0039H11.9063V19.6862H10.7942V14.0039Z" fill="#FDFAF9"/>
<path d="M18.4395 19.6862H12.8236V14.0039H13.9358V18.537H18.4395V19.6862Z" fill="#FDFAF9"/>
<path d="M23.8903 14.6104C24.0691 14.7807 24.2084 14.9855 24.3083 15.225C24.4135 15.4591 24.4661 15.7198 24.4661 16.0071V17.707C24.4661 17.9783 24.4135 18.2364 24.3083 18.4811C24.2031 18.7206 24.0612 18.9307 23.8824 19.1116C23.7089 19.2872 23.5038 19.4282 23.2672 19.5346C23.0305 19.6357 22.7781 19.6862 22.51 19.6862H18.8738V14.0039H22.51C22.7781 14.0039 23.0305 14.0598 23.2672 14.1715C23.5038 14.2832 23.7115 14.4295 23.8903 14.6104ZM23.3539 16.0071C23.3539 15.8954 23.3303 15.7889 23.2829 15.6879C23.2356 15.5814 23.1725 15.491 23.0936 15.4165C23.02 15.3367 22.9306 15.2729 22.8255 15.225C22.7256 15.1771 22.6204 15.1531 22.51 15.1531H19.9939V18.553H22.51C22.6256 18.553 22.7334 18.5317 22.8334 18.4891C22.9385 18.4412 23.0279 18.3774 23.1015 18.2976C23.1804 18.2178 23.2409 18.1273 23.2829 18.0262C23.3303 17.9251 23.3539 17.8187 23.3539 17.707V16.0071Z" fill="#FDFAF9"/>
<path d="M5.03222 22.6126C5.21101 22.7989 5.35035 23.0117 5.45026 23.2511C5.55017 23.4905 5.60012 23.7486 5.60012 24.0252C5.60012 24.2966 5.54754 24.552 5.44237 24.7914C5.34246 25.0308 5.20312 25.241 5.02433 25.4219C4.85081 25.6028 4.64311 25.7464 4.40122 25.8528C4.1646 25.9539 3.90957 26.0045 3.63613 26.0045H1.11214V27.7044H0V22.038H3.63613C3.90957 22.038 4.1646 22.0886 4.40122 22.1897C4.63785 22.2907 4.84818 22.4317 5.03222 22.6126ZM3.63613 24.8632C3.87802 24.8632 4.07783 24.7834 4.23558 24.6238C4.39333 24.4642 4.47221 24.2647 4.47221 24.0252C4.47221 23.8975 4.44855 23.7832 4.40122 23.6821C4.35916 23.5757 4.29868 23.4852 4.21981 23.4107C4.14093 23.3309 4.05154 23.2697 3.95163 23.2272C3.85173 23.1846 3.74656 23.1633 3.63613 23.1633H1.11214V24.8632H3.63613Z" fill="#FDFAF9"/>
<path d="M8.01215 27.7044C7.74398 27.7044 7.48895 27.6538 7.24707 27.5528C7.01044 27.4463 6.80274 27.3054 6.62395 27.1298C6.45043 26.9489 6.31108 26.7387 6.20592 26.4993C6.10601 26.2545 6.05606 25.9965 6.05606 25.7252V24.0173C6.05606 23.7459 6.10601 23.4905 6.20592 23.2511C6.31108 23.0064 6.45043 22.7962 6.62395 22.6206C6.80274 22.4397 7.01044 22.2987 7.24707 22.1976C7.48895 22.0912 7.74398 22.038 8.01215 22.038H9.70007C9.96825 22.038 10.2206 22.0912 10.4573 22.1976C10.6992 22.2987 10.9069 22.4397 11.0804 22.6206C11.2592 22.7962 11.3985 23.0064 11.4984 23.2511C11.6036 23.4905 11.6562 23.7459 11.6562 24.0173V25.7252C11.6562 25.9965 11.6036 26.2545 11.4984 26.4993C11.3985 26.7387 11.2592 26.9489 11.0804 27.1298C10.9069 27.3054 10.6992 27.4463 10.4573 27.5528C10.2206 27.6538 9.96825 27.7044 9.70007 27.7044H8.01215ZM7.68088 23.2272C7.58623 23.275 7.49947 23.3389 7.42059 23.4187C7.34172 23.4985 7.27862 23.589 7.23129 23.69C7.18397 23.7858 7.1603 23.8949 7.1603 24.0173V25.7252C7.1603 25.8422 7.18134 25.9513 7.2234 26.0524C7.27073 26.1535 7.33383 26.2439 7.4127 26.3237C7.49158 26.3982 7.58097 26.4567 7.68088 26.4993C7.78604 26.5419 7.89647 26.5631 8.01215 26.5631H9.70007C9.9367 26.5631 10.1339 26.4833 10.2916 26.3237C10.4494 26.1641 10.5283 25.9646 10.5283 25.7252V24.0173C10.5283 23.9002 10.5072 23.7911 10.4652 23.69C10.4231 23.5836 10.3626 23.4905 10.2837 23.4107C10.2101 23.3309 10.1234 23.2697 10.0235 23.2272C9.92355 23.1793 9.81576 23.1553 9.70007 23.1553H8.01215C7.89121 23.1553 7.78078 23.1793 7.68088 23.2272Z" fill="#FDFAF9"/>
<path d="M17.5409 22.6126C17.7196 22.7989 17.859 23.0117 17.9589 23.2511C18.0588 23.4905 18.1087 23.7486 18.1087 24.0252C18.1087 24.2966 18.0562 24.552 17.951 24.7914C17.8511 25.0308 17.7117 25.241 17.533 25.4219C17.3594 25.6028 17.1517 25.7464 16.9099 25.8528C16.6732 25.9539 16.4182 26.0045 16.1448 26.0045H13.6208V27.7044H12.5086V22.038H16.1448C16.4182 22.038 16.6732 22.0886 16.9099 22.1897C17.1465 22.2907 17.3568 22.4317 17.5409 22.6126ZM16.1448 24.8632C16.3867 24.8632 16.5865 24.7834 16.7442 24.6238C16.902 24.4642 16.9808 24.2647 16.9808 24.0252C16.9808 23.8975 16.9572 23.7832 16.9099 23.6821C16.8678 23.5757 16.8073 23.4852 16.7284 23.4107C16.6496 23.3309 16.5602 23.2697 16.4603 23.2272C16.3604 23.1846 16.2552 23.1633 16.1448 23.1633H13.6208V24.8632H16.1448Z" fill="#FDFAF9"/>
<path d="M23.6758 22.6126C23.8546 22.7989 23.9939 23.0117 24.0938 23.2511C24.1937 23.4905 24.2437 23.7486 24.2437 24.0252C24.2437 24.2966 24.1911 24.552 24.0859 24.7914C23.986 25.0308 23.8467 25.241 23.6679 25.4219C23.4944 25.6028 23.2867 25.7464 23.0448 25.8528C22.8082 25.9539 22.5531 26.0045 22.2797 26.0045H19.7557V27.7044H18.6436V22.038H22.2797C22.5531 22.038 22.8082 22.0886 23.0448 22.1897C23.2814 22.2907 23.4917 22.4317 23.6758 22.6126ZM22.2797 24.8632C22.5216 24.8632 22.7214 24.7834 22.8791 24.6238C23.0369 24.4642 23.1158 24.2647 23.1158 24.0252C23.1158 23.8975 23.0921 23.7832 23.0448 23.6821C23.0027 23.5757 22.9422 23.4852 22.8634 23.4107C22.7845 23.3309 22.6951 23.2697 22.5952 23.2272C22.4953 23.1846 22.3901 23.1633 22.2797 23.1633H19.7557V24.8632H22.2797Z" fill="#FDFAF9"/>
<path d="M30 22.0221L27.76 25.0149V27.7044H26.6399V25.0149L24.4157 22.0221H25.8275L27.2236 23.8736L28.5802 22.0221H30Z" fill="#FDFAF9"/>
</svg>
