<svg width="88" height="64" viewBox="0 0 88 64" fill="none" xmlns="http://www.w3.org/2000/svg">
<path d="M26.0282 16.6682H22.6733L21.1926 13.7185L19.3417 16.6682H16.01L12.9328 0H16.3108L18.5782 11.6583L21.1926 7.06992L23.8302 11.6583L26.0976 0H29.4755L26.0282 16.6682Z" fill="#FDFAF9"/>
<path d="M31.663 0H34.9253V16.6682H31.663V0Z" fill="#FDFAF9"/>
<path d="M54.0893 16.6682H37.616V0H40.8783V13.2971H54.0893V16.6682Z" fill="#FDFAF9"/>
<path d="M70.0781 1.77919C70.6026 2.27861 71.0113 2.87947 71.3044 3.58178C71.6129 4.26849 71.7671 5.03322 71.7671 5.876V10.8624C71.7671 11.6583 71.6129 12.4153 71.3044 13.1332C70.9959 13.8355 70.5794 14.452 70.055 14.9826C69.546 15.4976 68.9444 15.9112 68.2503 16.2234C67.5562 16.5199 66.8159 16.6682 66.0292 16.6682H55.3632V0H66.0292C66.8159 0 67.5562 0.163872 68.2503 0.491616C68.9444 0.819362 69.5537 1.24855 70.0781 1.77919ZM68.5048 5.876C68.5048 5.54825 68.4354 5.23611 68.2966 4.93958C68.1578 4.62744 67.9727 4.36213 67.7413 4.14363C67.5254 3.90953 67.2632 3.72224 66.9547 3.58178C66.6616 3.44132 66.3531 3.37109 66.0292 3.37109H58.6486V13.3439H66.0292C66.3686 13.3439 66.6848 13.2815 66.9778 13.1566C67.2863 13.0162 67.5485 12.8289 67.7645 12.5948C67.9958 12.3607 68.1732 12.0953 68.2966 11.7988C68.4354 11.5023 68.5048 11.1901 68.5048 10.8624V5.876Z" fill="#FDFAF9"/>
<path d="M14.7612 25.2523C15.2856 25.7985 15.6944 26.4228 15.9874 27.1251C16.2805 27.8274 16.427 28.5844 16.427 29.3959C16.427 30.1919 16.2728 30.941 15.9643 31.6433C15.6712 32.3456 15.2625 32.9621 14.738 33.4927C14.229 34.0234 13.6198 34.4448 12.9103 34.7569C12.2162 35.0534 11.4681 35.2017 10.666 35.2017H3.26227V40.1881H0V23.5667H10.666C11.4681 23.5667 12.2162 23.715 12.9103 24.0115C13.6044 24.3081 14.2213 24.7216 14.7612 25.2523ZM10.666 31.854C11.3755 31.854 11.9616 31.6199 12.4244 31.1517C12.8871 30.6835 13.1185 30.0982 13.1185 29.3959C13.1185 29.0214 13.0491 28.6858 12.9103 28.3893C12.7869 28.0771 12.6095 27.8118 12.3781 27.5933C12.1467 27.3592 11.8845 27.1797 11.5915 27.0549C11.2984 26.93 10.9899 26.8676 10.666 26.8676H3.26227V31.854H10.666Z" fill="#FDFAF9"/>
<path d="M23.5023 40.1881C22.7157 40.1881 21.9676 40.0398 21.2581 39.7433C20.564 39.4312 19.9547 39.0176 19.4303 38.5026C18.9213 37.9719 18.5125 37.3554 18.204 36.6531C17.911 35.9352 17.7644 35.1783 17.7644 34.3823V29.3725C17.7644 28.5766 17.911 27.8274 18.204 27.1251C18.5125 26.4072 18.9213 25.7907 19.4303 25.2757C19.9547 24.7451 20.564 24.3315 21.2581 24.0349C21.9676 23.7228 22.7157 23.5667 23.5023 23.5667H28.4536C29.2402 23.5667 29.9806 23.7228 30.6747 24.0349C31.3842 24.3315 31.9935 24.7451 32.5025 25.2757C33.0269 25.7907 33.4356 26.4072 33.7287 27.1251C34.0372 27.8274 34.1914 28.5766 34.1914 29.3725V34.3823C34.1914 35.1783 34.0372 35.9352 33.7287 36.6531C33.4356 37.3554 33.0269 37.9719 32.5025 38.5026C31.9935 39.0176 31.3842 39.4312 30.6747 39.7433C29.9806 40.0398 29.2402 40.1881 28.4536 40.1881H23.5023ZM22.5306 27.0549C22.2529 27.1953 21.9984 27.3826 21.7671 27.6167C21.5357 27.8508 21.3506 28.1161 21.2118 28.4127C21.073 28.6936 21.0036 29.0135 21.0036 29.3725V34.3823C21.0036 34.7257 21.0653 35.0456 21.1886 35.3422C21.3275 35.6387 21.5126 35.904 21.7439 36.1381C21.9753 36.3566 22.2375 36.5283 22.5306 36.6531C22.8391 36.778 23.163 36.8404 23.5023 36.8404H28.4536C29.1476 36.8404 29.7261 36.6063 30.1888 36.1381C30.6515 35.6699 30.8829 35.0846 30.8829 34.3823V29.3725C30.8829 29.0292 30.8212 28.7092 30.6978 28.4127C30.5744 28.1005 30.397 27.8274 30.1657 27.5933C29.9497 27.3592 29.6952 27.1797 29.4021 27.0549C29.1091 26.9144 28.7929 26.8442 28.4536 26.8442H23.5023C23.1476 26.8442 22.8236 26.9144 22.5306 27.0549Z" fill="#FDFAF9"/>
<path d="M51.4532 25.2523C51.9776 25.7985 52.3863 26.4228 52.6794 27.1251C52.9725 27.8274 53.119 28.5844 53.119 29.3959C53.119 30.1919 52.9648 30.941 52.6563 31.6433C52.3632 32.3456 51.9545 32.9621 51.43 33.4927C50.921 34.0234 50.3118 34.4448 49.6022 34.7569C48.9081 35.0534 48.1601 35.2017 47.358 35.2017H39.9543V40.1881H36.692V23.5667H47.358C48.1601 23.5667 48.9081 23.715 49.6022 24.0115C50.2963 24.3081 50.9133 24.7216 51.4532 25.2523ZM47.358 31.854C48.0675 31.854 48.6536 31.6199 49.1164 31.1517C49.5791 30.6835 49.8105 30.0982 49.8105 29.3959C49.8105 29.0214 49.7411 28.6858 49.6022 28.3893C49.4788 28.0771 49.3015 27.8118 49.0701 27.5933C48.8387 27.3592 48.5765 27.1797 48.2834 27.0549C47.9904 26.93 47.6819 26.8676 47.358 26.8676H39.9543V31.854H47.358Z" fill="#FDFAF9"/>
<path d="M69.4489 25.2523C69.9734 25.7985 70.3821 26.4228 70.6752 27.1251C70.9682 27.8274 71.1148 28.5844 71.1148 29.3959C71.1148 30.1919 70.9605 30.941 70.652 31.6433C70.359 32.3456 69.9502 32.9621 69.4258 33.4927C68.9168 34.0234 68.3075 34.4448 67.598 34.7569C66.9039 35.0534 66.1558 35.2017 65.3538 35.2017H57.95V40.1881H54.6878V23.5667H65.3538C66.1558 23.5667 66.9039 23.715 67.598 24.0115C68.2921 24.3081 68.9091 24.7216 69.4489 25.2523ZM65.3538 31.854C66.0633 31.854 66.6494 31.6199 67.1121 31.1517C67.5749 30.6835 67.8062 30.0982 67.8062 29.3959C67.8062 29.0214 67.7368 28.6858 67.598 28.3893C67.4746 28.0771 67.2972 27.8118 67.0659 27.5933C66.8345 27.3592 66.5723 27.1797 66.2792 27.0549C65.9862 26.93 65.6777 26.8676 65.3538 26.8676H57.95V31.854H65.3538Z" fill="#FDFAF9"/>
<path d="M88 23.5199L81.4292 32.2988V40.1881H78.1438V32.2988L71.6193 23.5199H75.7607L79.8559 28.9511L83.8354 23.5199H88Z" fill="#FDFAF9"/>
<path d="M8.98686 50.6561V53.9804H15.9047V57.328H8.98686V64H5.79401V47.3552H22.2442V50.6561H8.98686Z" fill="#FDFAF9"/>
<path d="M23.4961 47.3318H26.7583V64H23.4961V47.3318Z" fill="#FDFAF9"/>
<path d="M45.9223 64H29.449V47.3318H32.7113V60.6289H45.9223V64Z" fill="#FDFAF9"/>
<path d="M63.6464 47.3552V64H60.3379V52.0841L57.7003 54.7061H57.7697L55.4098 57.0471L50.4354 52.0841V64H47.1963V47.3552H50.5048L55.4098 52.3416L60.3379 47.3552H63.6464Z" fill="#FDFAF9"/>
<path d="M77.6807 53.9804C78.344 53.9804 78.9764 54.113 79.5779 54.3783C80.1795 54.628 80.7039 54.9792 81.1512 55.4318C81.5985 55.8688 81.9533 56.3916 82.2155 57.0003C82.4931 57.609 82.6319 58.2723 82.6319 58.9902C82.6319 59.7237 82.4931 60.3948 82.2155 61.0035C81.9533 61.6121 81.5908 62.1428 81.128 62.5954C80.6807 63.0324 80.1563 63.3757 79.5548 63.6254C78.9686 63.8751 78.344 64 77.6807 64H71.0174C70.3233 64 69.6755 63.8751 69.0739 63.6254C68.4724 63.3601 67.9479 63.0012 67.5006 62.5486C67.0533 62.096 66.6985 61.5653 66.4363 60.9567C66.1895 60.348 66.0662 59.6925 66.0662 58.9902H69.3516C69.3516 59.4272 69.5212 59.8174 69.8606 60.1607C70.1999 60.5041 70.5855 60.6757 71.0174 60.6757H77.6807C77.8504 60.6757 78.0278 60.6367 78.2129 60.5587C78.4134 60.4806 78.5908 60.3714 78.745 60.2309C78.9147 60.0749 79.0535 59.8954 79.1614 59.6925C79.2694 59.474 79.3234 59.2399 79.3234 58.9902C79.3234 58.4908 79.1461 58.0928 78.7913 57.7962C78.452 57.4841 78.0818 57.328 77.6807 57.328H71.0174C70.3079 57.328 69.6446 57.1954 69.0276 56.9301C68.4261 56.6647 67.9016 56.3058 67.4543 55.8532C67.0225 55.385 66.6831 54.8543 66.4363 54.2613C66.1895 53.6526 66.0662 53.0049 66.0662 52.3182C66.0662 51.6003 66.1973 50.937 66.4595 50.3283C66.7217 49.7197 67.0765 49.1968 67.5238 48.7598C67.9711 48.3072 68.4955 47.9561 69.0971 47.7064C69.6986 47.4411 70.3387 47.3084 71.0174 47.3084H77.6807C78.3286 47.3084 78.9532 47.4333 79.5548 47.683C80.1563 47.9327 80.6807 48.2838 81.128 48.7364C81.5908 49.1734 81.9533 49.6963 82.2155 50.3049C82.4931 50.9136 82.6319 51.5847 82.6319 52.3182H79.3234C79.3234 52.0685 79.2694 51.8344 79.1614 51.6159C79.0689 51.3974 78.9378 51.2179 78.7682 51.0775C78.6139 50.9214 78.4365 50.8044 78.236 50.7263C78.0509 50.6327 77.8658 50.5859 77.6807 50.5859H71.0174C70.8014 50.5859 70.5932 50.6405 70.3927 50.7497C70.1922 50.8434 70.0148 50.976 69.8606 51.1477C69.7063 51.3038 69.5829 51.4832 69.4904 51.6861C69.3978 51.889 69.3516 52.0997 69.3516 52.3182C69.3516 52.7708 69.5135 53.161 69.8374 53.4887C70.1768 53.8165 70.5701 53.9804 71.0174 53.9804H77.6807Z" fill="#FDFAF9"/>
</svg>
