<svg width="50" height="35" viewBox="0 0 50 35" fill="none" xmlns="http://www.w3.org/2000/svg">
<path d="M45.1784 8.9192C45.1973 8.93009 45.1973 8.93009 45.2166 8.94121C45.3965 9.04529 45.57 9.15021 45.7236 9.29158C45.7329 9.29994 45.7421 9.30809 45.7515 9.31653C46.0211 9.56102 46.2243 9.85407 46.3417 10.1981C46.3477 10.2143 46.3536 10.2305 46.3596 10.2471C46.751 11.3607 46.5271 12.8901 46.4033 14.0458C46.4016 14.0623 46.4016 14.0623 46.3999 14.0792C46.292 15.0877 46.1024 16.0946 45.7873 17.0589C45.784 17.0693 45.7807 17.0794 45.7772 17.09C45.6609 17.4448 45.5273 17.7911 45.3774 18.1329C45.3656 18.1595 45.3541 18.1859 45.3426 18.2125C44.8134 19.4155 43.9062 20.5722 42.6536 21.0677C42.6231 21.0789 42.5926 21.0901 42.5618 21.101C42.5525 21.1045 42.5432 21.108 42.5334 21.1116C42.2768 21.207 42.0131 21.2834 41.7407 21.3184C41.7212 21.3214 41.7017 21.3241 41.6816 21.3271C40.8879 21.4408 40.016 21.3536 39.2675 21.0608C38.8059 20.8657 38.8059 20.8657 38.3228 20.9054C38.252 20.9371 38.2121 20.9832 38.1655 21.0428C37.8951 21.3739 37.5311 21.5363 37.1358 21.6755C36.9867 21.728 36.8391 21.7834 36.6929 21.8439C36.6828 21.8481 36.6725 21.8523 36.6621 21.8566C36.3428 21.9885 36.0678 22.1762 35.9092 22.4907C35.8564 22.6326 35.8182 22.7807 35.776 22.926C35.4441 24.0699 35.0378 25.191 34.5262 26.2668C34.5186 26.2828 34.5186 26.2828 34.511 26.299C34.4764 26.3717 34.4412 26.4441 34.4056 26.5162C34.4009 26.5259 34.3961 26.5358 34.3912 26.5457C34.2794 26.7746 34.1507 26.9945 34.0234 27.2149C33.9981 27.2587 33.973 27.3025 33.9479 27.3463C33.7403 27.7093 33.5225 28.0631 33.2696 28.397C33.2632 28.4055 33.2567 28.414 33.2502 28.4228C32.4961 29.4231 31.5705 30.2509 30.3478 30.6097C30.3249 30.6166 30.3249 30.6166 30.3014 30.6236C30.1902 30.6547 30.0776 30.6727 29.9631 30.689C29.9439 30.692 29.9245 30.695 29.9046 30.698C29.6698 30.7314 29.4368 30.7405 29.1997 30.7314C29.1755 30.7306 29.1755 30.7306 29.1509 30.7297C29.1287 30.7286 29.1287 30.7286 29.1061 30.7276C29.0929 30.7269 29.0796 30.7263 29.066 30.7257C29.0558 30.7241 29.0458 30.7224 29.0352 30.7207C29.0161 30.692 29.0161 30.692 29.0257 30.6423C29.1052 30.3414 29.2706 30.1222 29.5405 29.9649C29.6112 29.9253 29.6834 29.8884 29.7556 29.8513C30.8911 29.2667 31.8008 28.3559 32.5456 27.3341C32.5555 27.3205 32.5555 27.3205 32.5657 27.3067C32.8436 26.9265 33.0873 26.5245 33.3213 26.1163C33.3422 26.0798 33.3632 26.0433 33.3841 26.0068C33.5836 25.6598 33.7797 25.312 33.9567 24.953C33.979 24.9079 34.0013 24.8626 34.0236 24.8175C34.1688 24.524 34.3136 24.2303 34.4559 23.9354C34.4717 23.9028 34.4875 23.8701 34.5035 23.8375C34.5962 23.647 34.6702 23.4534 34.7367 23.2522C34.7525 23.2048 34.7685 23.1573 34.7846 23.1099C35.0163 22.4294 35.0163 22.4294 34.9034 21.7382C34.6751 21.3404 34.0909 21.1517 33.7016 20.9505C33.5274 20.8606 33.3534 20.7702 33.1794 20.6799C33.1624 20.671 33.1452 20.6621 33.1276 20.653C32.849 20.5083 32.5712 20.3623 32.2948 20.2133C32.2775 20.204 32.2602 20.1947 32.2424 20.185C32.0604 20.0869 31.8793 19.9873 31.699 19.8862C31.6711 19.8706 31.6433 19.8551 31.6155 19.8396C31.529 19.7911 31.4426 19.7424 31.3564 19.6934C31.2031 19.6068 31.053 19.5285 30.8861 19.4718C29.7832 19.0893 28.925 17.8947 28.354 16.9289C28.3333 16.894 28.3122 16.8595 28.291 16.8251C28.1125 16.535 27.9555 16.2348 27.8036 15.9304C27.7969 15.917 27.7902 15.9033 27.7832 15.8894C27.5306 15.3834 27.3071 14.862 27.116 14.3302C27.0926 14.2654 27.0683 14.2012 27.0431 14.137C27.0092 14.049 26.9802 13.9598 26.9526 13.8696C26.9354 13.8132 26.9172 13.7573 26.8977 13.7015C26.8093 13.445 26.7383 13.183 26.6675 12.9213C26.6524 12.865 26.6371 12.8087 26.6218 12.7525C26.6119 12.7161 26.602 12.6797 26.5923 12.6435C26.5877 12.627 26.5832 12.6104 26.5786 12.5933C26.555 12.5058 26.5341 12.4184 26.5172 12.3293C26.5072 12.2778 26.4951 12.227 26.4832 12.176C26.4617 12.0819 26.4443 11.9878 26.4292 11.8925C26.42 11.8378 26.4094 11.7836 26.3984 11.7292C26.3659 11.5703 26.3424 11.4118 26.3227 11.2509C26.3174 11.2079 26.3115 11.165 26.3056 11.1221C26.2514 10.7229 26.2244 10.3168 26.226 9.91423C26.2262 9.89908 26.2263 9.88386 26.2262 9.86822C26.2328 8.9424 26.3765 7.82502 27.0732 7.1432C27.3881 6.84342 27.7588 6.63283 28.1952 6.56527C28.2231 6.56081 28.2231 6.56081 28.2516 6.55632C28.4066 6.5332 28.559 6.52686 28.7157 6.52886C28.7329 6.52904 28.7329 6.52904 28.7505 6.5291C29.2379 6.53265 29.7117 6.66065 30.1737 6.80734C30.3866 6.87422 30.6261 6.94317 30.8399 6.84657C31.0107 6.75245 31.1269 6.61353 31.2293 6.45191C31.4399 6.12207 31.7573 5.85744 32.134 5.73642C32.1551 5.72948 32.1551 5.72948 32.1764 5.72247C32.3362 5.67465 32.4923 5.66971 32.6455 5.74258C32.7622 5.81544 32.8253 5.92029 32.8623 6.05052C32.8822 6.16026 32.8858 6.27049 32.8886 6.3815C32.8935 6.5645 32.9297 6.73167 33.0632 6.86799C33.1606 6.95204 33.26 6.98869 33.3885 6.99264C33.4291 6.98843 33.4673 6.98089 33.5071 6.97249C33.5161 6.97767 33.5248 6.98269 33.5339 6.98794C33.5457 6.97986 33.5457 6.97986 33.5575 6.97143C33.5949 6.94814 33.6327 6.9308 33.673 6.91313C33.7464 6.87975 33.8109 6.84204 33.8767 6.79578C33.9199 6.85621 33.9359 6.91631 33.9548 6.98713C33.9582 7.00029 33.9617 7.01333 33.9653 7.02691C34.0467 7.34342 34.064 7.67377 34.055 7.99911C34.0543 8.03165 34.0538 8.0642 34.0535 8.09684C34.0499 8.33695 34.0218 8.57568 33.9982 8.81434C33.9035 9.77262 33.9425 10.6133 34.5616 11.4003C34.6095 11.4614 34.6095 11.4614 34.6693 11.5088C34.6702 11.4922 34.6711 11.4756 34.6718 11.4585C34.6909 11.0769 34.7194 10.698 34.7623 10.3185C34.7684 10.2637 34.774 10.2089 34.7794 10.1541C34.8285 9.66412 34.916 9.1785 35.0199 8.69768C35.0272 8.6641 35.0342 8.63037 35.0412 8.59664C35.0459 8.57421 35.0507 8.55177 35.0554 8.52933C35.0574 8.51912 35.0595 8.50899 35.0617 8.49838C35.084 8.3948 35.131 8.31444 35.1902 8.2279C35.1962 8.21911 35.2022 8.21019 35.2082 8.20105C35.6059 7.60976 36.2063 7.20691 36.8858 7.00379C36.9357 6.98866 36.9849 6.97237 37.0341 6.95539C37.101 6.93318 37.167 6.91774 37.2363 6.90546C37.2809 6.89736 37.3249 6.88729 37.3691 6.87717C37.779 6.79218 38.2073 6.77476 38.625 6.78897C38.6409 6.78962 38.6567 6.79005 38.6728 6.79051C39.6752 6.82825 40.6805 7.09874 41.5809 7.53772C42.1178 7.79951 42.6755 7.98317 43.2443 8.1616C44.2936 8.49042 44.2936 8.49042 44.7491 8.69346C44.7601 8.69821 44.7711 8.70283 44.7825 8.70781C44.9195 8.7683 45.0487 8.84449 45.1784 8.9192ZM43.7461 9.00217C43.7322 8.99717 43.7181 8.99223 43.7038 8.98713C43.6193 8.957 43.6193 8.957 43.5349 8.92707C43.3162 8.84936 43.1022 8.76533 42.8915 8.66711C42.9077 8.72681 42.9239 8.78638 42.9404 8.84589C43.0111 9.10193 43.0111 9.10193 43.0308 9.21104C43.0392 9.25503 43.0492 9.29857 43.0591 9.34245C43.0838 9.45613 43.1007 9.5705 43.1162 9.68569C43.1195 9.70938 43.1227 9.73307 43.126 9.75677C43.3209 11.128 43.0232 12.5175 42.1098 14.6476C42.101 14.6652 42.101 14.6652 42.0922 14.6832C41.9371 15.0005 41.7699 15.3104 41.5935 15.6164C41.5736 15.6511 41.5535 15.6858 41.5336 15.7206C41.4803 15.8133 41.4268 15.906 41.3732 15.9984C41.3454 16.0466 41.3176 16.0948 41.2898 16.143C40.9399 16.7495 40.5838 17.3519 40.2201 17.9503C40.065 18.2052 39.911 18.4606 39.7613 18.7189C39.7549 18.7301 39.7482 18.7413 39.7416 18.7528C39.6499 18.9108 39.5648 19.0714 39.4833 19.235C39.7574 19.2945 40.069 19.2528 40.3383 19.1873C40.3922 19.1746 40.3922 19.1746 40.4488 19.1662C40.878 19.0959 41.3036 18.8145 41.6312 18.5424C41.6396 18.5356 41.6478 18.5288 41.6565 18.5217C41.8829 18.3338 42.0808 18.1155 42.2644 17.8862C42.2739 17.8743 42.2835 17.8623 42.2933 17.85C42.4964 17.5912 42.6681 17.3141 42.8316 17.0291C42.842 17.0111 42.8521 16.9932 42.8625 16.9753C43.038 16.6697 43.2013 16.3608 43.3443 16.0386C43.3502 16.0255 43.356 16.0123 43.3621 15.9988C43.7582 15.1073 44.0837 14.1879 44.4145 13.2708C44.9357 11.8262 44.9357 11.8262 45.2625 11.1807C45.4381 10.8337 45.592 10.4927 45.4729 10.0975C45.215 9.44349 44.3467 9.21558 43.7461 9.00217ZM39.8473 7.88474C39.8197 7.87786 39.8197 7.87786 39.7913 7.87085C39.1367 7.70848 38.4284 7.59051 37.7566 7.70607C37.7454 7.70792 37.7342 7.70977 37.7227 7.7118C37.0299 7.82742 36.4436 8.15649 36.03 8.72943C36.0128 8.75529 35.9959 8.78138 35.9792 8.80755C35.9638 8.83201 35.9638 8.83201 35.948 8.85671C35.5972 9.42724 35.4565 10.1019 35.4035 10.7624C35.4021 10.7802 35.4007 10.7979 35.3992 10.8162C35.3582 11.3457 35.3754 11.8824 35.4329 12.4106C35.4353 12.4326 35.4353 12.4326 35.4377 12.4551C35.4589 12.6515 35.4832 12.8473 35.5139 13.0425C35.516 13.0551 35.5179 13.0675 35.5199 13.0804C35.5463 13.2478 35.5749 13.4148 35.6063 13.5813C35.6126 13.6149 35.6189 13.6485 35.625 13.6822C35.6489 13.8109 35.6751 13.9388 35.705 14.0663C35.7188 14.1254 35.7317 14.1846 35.7433 14.2443C35.7561 14.3105 35.7732 14.375 35.792 14.4398C35.8018 14.4779 35.8095 14.5151 35.8167 14.5537C35.8397 14.6711 35.8722 14.7859 35.9036 14.9012C35.9144 14.9408 35.9251 14.9804 35.9358 15.02C35.9426 15.0452 35.9494 15.0702 35.9563 15.0953C35.961 15.1131 35.961 15.1131 35.9658 15.1313C35.9743 15.1837 35.9743 15.1837 36.0034 15.2223C36.1281 14.9463 36.1163 14.6087 36.0888 14.3119C36.0847 14.2677 36.0811 14.2233 36.0773 14.1792C36.0642 14.0258 36.0508 13.8726 36.0356 13.7194C36.0243 13.6033 36.0144 13.4873 36.0078 13.3709C36.007 13.3597 36.0064 13.3483 36.0058 13.3368C35.993 13.0948 36.0064 12.8531 36.0234 12.612C36.0245 12.5974 36.0255 12.5829 36.0265 12.5681C36.0734 11.9005 36.1775 11.2467 36.4139 10.6188C36.4183 10.607 36.4228 10.5953 36.4273 10.5831C36.5764 10.197 36.8154 9.77349 37.1949 9.57488C37.3878 9.49227 37.5748 9.50269 37.7686 9.57968C38.2702 9.80365 38.5935 10.3453 38.8355 10.8112C38.8413 10.8224 38.8471 10.8335 38.8531 10.845C38.8898 10.9162 38.9249 10.9879 38.9594 11.0601C38.9643 11.07 38.9692 11.0801 38.9741 11.0904C39.037 11.2196 39.0884 11.3484 39.1296 11.486C39.1432 11.5309 39.1581 11.5746 39.1743 11.6186C39.3125 12.018 39.3289 12.4766 39.3098 12.8936C39.3093 12.9059 39.3088 12.9182 39.3082 12.931C39.2637 13.8549 38.9238 14.7362 38.6168 15.5969C38.2984 16.4509 38.2984 16.4509 38.1822 17.349C38.1819 17.3647 38.1816 17.3803 38.1813 17.3964C38.178 17.8326 38.3375 18.2144 38.6409 18.5258C38.7761 18.6605 38.93 18.7638 39.09 18.866C39.1353 18.7672 39.1559 18.6632 39.179 18.5573C39.1812 18.5473 39.1835 18.5372 39.1858 18.527C39.3263 17.8911 39.4104 17.2493 39.4633 16.6003C39.4642 16.5881 39.4653 16.5758 39.4663 16.5633C39.4879 16.2963 39.5039 16.0291 39.5184 15.7618C39.5221 15.6967 39.5257 15.6318 39.5294 15.5667C39.5403 15.3749 39.551 15.1831 39.5616 14.9913C39.5699 14.8413 39.5781 14.6915 39.5868 14.5415C39.5903 14.4776 39.5939 14.4135 39.5974 14.3495C39.6147 14.0303 39.639 13.7127 39.671 13.3947C39.7118 12.9904 39.7432 12.5853 39.7656 12.1795C39.7731 12.0464 39.7828 11.9135 39.7931 11.7806C39.8004 11.6875 39.8064 11.5945 39.8111 11.5011C39.8663 10.4262 40.0354 9.32227 40.5425 8.36251C40.5503 8.34771 40.5582 8.33277 40.5662 8.31736C40.5853 8.28121 40.6043 8.24486 40.6234 8.20871C40.3753 8.04595 40.1349 7.9538 39.8473 7.88474ZM41.2271 8.64592C40.5016 9.84073 40.3427 11.3098 40.1682 13.4669C40.1627 13.5667 40.156 13.6664 40.1472 13.7661C40.1379 13.8737 40.133 13.981 40.1297 14.089C40.125 14.2343 40.116 14.3793 40.1073 14.5243C40.0973 14.6942 40.0878 14.8641 40.0824 15.0342C40.079 15.1413 40.0731 15.2482 40.0662 15.355C40.0602 15.4512 40.0565 15.5475 40.0531 15.6439C40.0472 15.8139 40.0386 15.9836 40.0287 16.1534C40.0278 16.1681 40.027 16.1829 40.0261 16.198C40.012 16.4414 39.9938 16.6842 39.9707 16.9268C39.9623 17.017 39.9544 17.1071 39.9464 17.1973C39.9884 17.1603 40.0007 17.131 40.0232 17.08C40.0313 17.0622 40.0393 17.0444 40.0474 17.0261C40.0516 17.0166 40.0559 17.007 40.0603 16.9972C40.136 16.8272 40.2151 16.6592 40.2991 16.4932C40.3037 16.4838 40.3084 16.4745 40.3133 16.4648C40.3428 16.4066 40.3726 16.3482 40.4022 16.2898C40.4291 16.237 40.4558 16.1842 40.4826 16.1314C40.5911 15.9176 40.6999 15.704 40.8092 15.4907C41.7669 13.6459 41.7669 13.6459 42.2601 10.2186C42.2577 10.2081 42.2554 10.1979 42.2532 10.1873C42.1137 9.59323 41.7286 8.9989 41.2271 8.64592ZM37.2579 11.443C37.0726 11.8266 36.9926 12.2692 36.9647 12.6922C36.9632 12.7156 36.9632 12.7156 36.9616 12.7393C36.9191 13.3944 37.0185 14.0924 37.2389 14.7138C37.2688 14.8 37.2961 14.8871 37.3239 14.974C37.3353 14.9747 37.3466 14.9755 37.3583 14.9762C37.5431 14.0256 37.6 13.068 37.4269 12.1079C37.4235 12.0873 37.42 12.0667 37.4166 12.0461C37.3916 11.903 37.358 11.7632 37.3201 11.6231C37.3155 11.6061 37.311 11.5892 37.3062 11.5718C37.2939 11.4998 37.2939 11.4998 37.2579 11.443ZM29.2823 7.37017C29.2713 7.36756 29.2602 7.36487 29.2487 7.36216C29.1756 7.34491 29.1025 7.32844 29.029 7.31263C29.0051 7.30748 28.9811 7.30212 28.957 7.29656C28.6298 7.22165 28.3253 7.33505 28.0442 7.50647C27.5088 7.86102 27.2772 8.43898 27.1497 9.04445C26.9916 9.84027 27.0363 10.6845 27.1375 11.4866C27.1393 11.5002 27.141 11.5136 27.1426 11.5275C27.1547 11.6227 27.1677 11.718 27.1809 11.813C27.1826 11.8249 27.1842 11.8366 27.1859 11.8486C27.1954 11.9158 27.2054 11.9829 27.2156 12.0499C27.2208 12.085 27.2255 12.12 27.2302 12.1552C27.2558 12.3354 27.2989 12.5085 27.3486 12.6836C27.3748 12.7762 27.3982 12.8679 27.4163 12.9624C27.428 13.0211 27.4443 13.0784 27.4606 13.1359C27.4848 13.2227 27.5063 13.3091 27.5229 13.3977C27.5325 13.4462 27.5461 13.4934 27.5595 13.541C27.5695 13.5787 27.5773 13.6164 27.5848 13.6548C27.6013 13.7386 27.6207 13.8218 27.6409 13.9049C27.6476 13.9324 27.6542 13.9599 27.6608 13.9873C27.6646 14.0028 27.6684 14.0185 27.6722 14.0345C27.6824 14.0767 27.6922 14.1191 27.702 14.1614C27.7485 14.3615 27.7999 14.5602 27.854 14.7584C27.8676 14.8087 27.8811 14.8588 27.8947 14.9091C27.9035 14.9414 27.9123 14.974 27.9213 15.0065C27.9252 15.0213 27.929 15.036 27.9331 15.0511C27.956 15.1344 27.9815 15.2161 28.0102 15.2976C28.0251 15.34 28.0389 15.3829 28.0527 15.4258C28.0866 15.5292 28.1242 15.6309 28.1645 15.732C28.171 15.7484 28.171 15.7484 28.1776 15.7651C28.4752 16.5082 28.9043 17.1821 29.5305 17.6909C29.5495 17.7065 29.5684 17.722 29.5873 17.7375C30.3091 18.33 31.0625 18.8859 31.8517 19.3857C31.8684 19.3964 31.885 19.4068 31.902 19.4178C32.9453 20.0813 34.0636 20.6803 35.2212 21.1183C35.3197 20.8576 35.3953 20.5686 35.3797 20.2878C35.3788 20.2726 35.378 20.2572 35.3772 20.2415C35.3635 20.102 35.3098 19.9621 35.2098 19.8606C34.898 19.6042 34.4581 19.5927 34.0747 19.5491C33.35 19.4665 32.6611 19.3329 32.0055 18.9957C31.9886 18.987 31.9715 18.9783 31.954 18.9692C31.2697 18.5929 30.777 18.0053 30.3365 17.3761C30.323 17.3566 30.323 17.3566 30.3089 17.3368C30.1707 17.1376 30.0503 16.9288 29.9322 16.7172C29.9241 16.7025 29.9158 16.688 29.9076 16.673C29.7976 16.4763 29.6997 16.2769 29.6101 16.0702C29.6014 16.0501 29.5926 16.0301 29.5837 16.0099C29.4796 15.7714 29.3879 15.5279 29.3085 15.2803C29.2997 15.2532 29.2907 15.2264 29.2811 15.1996C29.2399 15.0843 29.2076 14.9665 29.1758 14.8483C29.1665 14.8135 29.1569 14.7786 29.1474 14.7437C29.1155 14.6263 29.0864 14.5093 29.0642 14.3898C29.0595 14.3665 29.0547 14.3433 29.0497 14.3201C29.0148 14.1495 28.9883 13.9791 28.9675 13.8064C28.9638 13.7772 28.9603 13.748 28.9566 13.7189C28.9303 13.5099 28.9112 13.3021 28.9041 13.0916C28.9036 13.0779 28.9032 13.0642 28.9028 13.0501C28.8565 11.6414 29.169 10.2745 30.0892 8.57718C30.0993 8.56107 30.1096 8.54484 30.1201 8.5282C30.14 8.49714 30.16 8.46628 30.1801 8.43537C30.2768 8.28496 30.3517 8.13444 30.32 7.95156C30.2759 7.80788 30.1688 7.70434 30.0433 7.62569C29.8059 7.49942 29.5424 7.43173 29.2823 7.37017ZM33.659 11.6524C33.642 11.7004 33.6287 11.7472 33.6194 11.7973C33.6168 11.811 33.6142 11.8248 33.6115 11.839C33.6074 11.8613 33.6074 11.8613 33.6031 11.8842C33.6002 11.9 33.5972 11.9157 33.5942 11.932C33.5845 11.9844 33.5747 12.0368 33.5652 12.0892C33.5619 12.1072 33.5586 12.1253 33.5552 12.1439C33.4198 12.8812 33.2992 13.6218 33.2409 14.37C33.2365 14.4259 33.2317 14.4817 33.2271 14.5375C33.2078 14.7739 33.1989 15.0087 33.2005 15.2459C33.2006 15.2826 33.2004 15.3194 33.1997 15.3561C33.1937 15.7987 33.2363 16.2508 33.3414 16.6819C33.3443 16.6939 33.3472 16.7058 33.3502 16.7182C33.4776 17.2403 33.7221 17.7648 34.1925 18.0641C34.464 18.2293 34.7903 18.3445 35.1117 18.3423C35.1957 18.3076 35.2542 18.2396 35.2949 18.1603C35.4445 17.7947 35.3934 17.3625 35.3364 16.9819C35.3309 16.9456 35.3258 16.9093 35.3208 16.8729C35.2891 16.6436 35.244 16.4174 35.1942 16.1913C35.1874 16.159 35.1805 16.1265 35.1735 16.0941C35.1278 15.8824 35.0779 15.6726 35.0211 15.4637C35.0146 15.4399 35.0082 15.4162 35.0018 15.3924C34.9884 15.3432 34.9751 15.294 34.9616 15.2448C34.9446 15.1821 34.9277 15.1195 34.9107 15.0567C34.8975 15.0079 34.8842 14.959 34.871 14.9102C34.8647 14.8871 34.8585 14.8639 34.8522 14.8408C34.8219 14.7286 34.7912 14.6171 34.7514 14.5078C34.7394 14.4727 34.7297 14.4376 34.7203 14.4017C34.7043 14.3402 34.6843 14.2808 34.6632 14.2207C34.6421 14.1584 34.6227 14.0956 34.6033 14.0328C34.5728 13.9337 34.5412 13.8352 34.5063 13.7374C34.4994 13.7178 34.4925 13.6984 34.4856 13.6788C34.4735 13.645 34.4615 13.6112 34.4494 13.5774C34.4194 13.4931 34.3899 13.4086 34.3604 13.3241C34.296 13.1392 34.2304 12.9552 34.1561 12.7738C34.1279 12.7049 34.1013 12.6357 34.0758 12.5658C34.033 12.4494 33.9862 12.3349 33.9372 12.2208C33.9289 12.2015 33.9289 12.2015 33.9205 12.1818C33.8242 11.8907 33.8242 11.8907 33.659 11.6524ZM36.2195 16.2691C36.2091 16.3303 36.2073 16.3875 36.2094 16.4496C36.21 16.4687 36.2107 16.4879 36.2113 16.5076C36.2121 16.5281 36.2127 16.5487 36.2134 16.5693C36.2142 16.5906 36.2149 16.612 36.2156 16.6333C36.2201 16.7666 36.2254 16.8998 36.2314 17.0331C36.238 17.1823 36.2424 17.3316 36.2467 17.4809C36.2472 17.5 36.2478 17.5193 36.2484 17.5391C36.2492 17.5649 36.2492 17.5649 36.2499 17.5911C36.251 17.6241 36.2529 17.6573 36.2551 17.6903C36.3072 17.7022 36.3246 17.6943 36.3715 17.6666C36.4873 17.5703 36.5052 17.4374 36.5198 17.2935C36.523 17.1333 36.489 16.9821 36.4499 16.8276C36.4464 16.8118 36.4428 16.7958 36.4391 16.7794C36.3956 16.5991 36.3158 16.4275 36.2195 16.2691ZM37.028 18.6685C37.0014 18.6896 36.9747 18.7108 36.948 18.732C36.9331 18.7439 36.9182 18.7555 36.9029 18.7677C36.7477 18.8989 36.6351 19.1167 36.6174 19.318C36.601 19.7587 36.8238 20.1327 37.0779 20.4789C37.0856 20.4894 37.0932 20.5 37.1011 20.5107C37.137 20.543 37.1622 20.5448 37.21 20.5467C37.2441 20.5429 37.2441 20.5429 37.277 20.5338C37.2893 20.5307 37.3016 20.5277 37.3142 20.5244C37.3269 20.5209 37.3396 20.5174 37.3528 20.5138C37.3724 20.5085 37.3724 20.5085 37.3925 20.5031C37.5525 20.4577 37.6781 20.3939 37.7767 20.2566C37.8512 20.1145 37.8259 19.9687 37.782 19.8207C37.6742 19.4838 37.4373 19.1919 37.2279 18.9114C37.2194 18.9001 37.2111 18.8889 37.2025 18.8772C37.1786 18.8454 37.1546 18.8135 37.1307 18.7817C37.1198 18.7672 37.1198 18.7672 37.1085 18.7524C37.0739 18.7046 37.0739 18.7046 37.028 18.6685ZM36.3086 20.7177C36.2677 20.8636 36.2381 21.0113 36.2084 21.1597C36.2036 21.1842 36.1987 21.2087 36.1937 21.2331C36.1818 21.2924 36.17 21.3517 36.1581 21.411C36.2374 21.3966 36.3165 21.3819 36.3954 21.3652C36.4212 21.3597 36.4212 21.3597 36.4475 21.3542C36.465 21.3504 36.4827 21.3466 36.5007 21.3428C36.6146 21.3187 36.7286 21.2952 36.8432 21.2746C36.8308 21.2282 36.8189 21.2157 36.7855 21.1822C36.7757 21.1723 36.7657 21.1623 36.7556 21.152C36.745 21.1415 36.7342 21.1308 36.7232 21.1199C36.7067 21.1033 36.7067 21.1033 36.69 21.0865C36.6669 21.0632 36.6437 21.0401 36.6205 21.0169C36.5848 20.9814 36.5493 20.9457 36.5136 20.91C36.4912 20.8875 36.4687 20.8649 36.4464 20.8425C36.4356 20.8318 36.4249 20.821 36.4139 20.8101C36.4039 20.8001 36.3941 20.7903 36.3839 20.7802C36.3707 20.7671 36.3707 20.7671 36.3574 20.7537C36.3361 20.7322 36.3361 20.7322 36.3086 20.7177Z" fill="#FDFAF9"/>
<path d="M8.09859 17.5459H7.18364L6.7798 16.7414L6.275 17.5459H5.36636L4.52713 13H5.44839L6.06677 16.1795L6.7798 14.9282L7.49914 16.1795L8.11752 13H9.03878L8.09859 17.5459Z" fill="#FDFAF9"/>
<path d="M9.63537 13H10.5251V17.5459H9.63537V13Z" fill="#FDFAF9"/>
<path d="M15.7516 17.5459H11.2589V13H12.1486V16.6265H15.7516V17.5459Z" fill="#FDFAF9"/>
<path d="M20.1122 13.4852C20.2552 13.6214 20.3667 13.7853 20.4466 13.9768C20.5308 14.1641 20.5728 14.3727 20.5728 14.6025V15.9625C20.5728 16.1795 20.5308 16.386 20.4466 16.5818C20.3625 16.7733 20.2489 16.9415 20.1059 17.0862C19.9671 17.2266 19.803 17.3394 19.6137 17.4246C19.4244 17.5054 19.2225 17.5459 19.008 17.5459H16.0991V13H19.008C19.2225 13 19.4244 13.0447 19.6137 13.1341C19.803 13.2235 19.9692 13.3405 20.1122 13.4852ZM19.6831 14.6025C19.6831 14.5132 19.6642 14.428 19.6263 14.3472C19.5885 14.262 19.538 14.1897 19.4749 14.1301C19.416 14.0662 19.3445 14.0152 19.2604 13.9768C19.1804 13.9385 19.0963 13.9194 19.008 13.9194H16.9951V16.6392H19.008C19.1005 16.6392 19.1868 16.6222 19.2667 16.5882C19.3508 16.5499 19.4223 16.4988 19.4812 16.4349C19.5443 16.3711 19.5927 16.2987 19.6263 16.2179C19.6642 16.137 19.6831 16.0519 19.6831 15.9625V14.6025Z" fill="#FDFAF9"/>
<path d="M5.02578 19.887C5.1688 20.036 5.28028 20.2062 5.36021 20.3978C5.44013 20.5893 5.4801 20.7957 5.4801 21.0171C5.4801 21.2341 5.43803 21.4385 5.3539 21.63C5.27397 21.8215 5.16249 21.9897 5.01947 22.1344C4.88065 22.2791 4.71448 22.394 4.52098 22.4792C4.33168 22.56 4.12765 22.6005 3.90891 22.6005H1.88971V23.9604H1V19.4273H3.90891C4.12765 19.4273 4.33168 19.4677 4.52098 19.5486C4.71028 19.6295 4.87854 19.7423 5.02578 19.887ZM3.90891 21.6875C4.10241 21.6875 4.26227 21.6236 4.38847 21.4959C4.51467 21.3682 4.57777 21.2086 4.57777 21.0171C4.57777 20.9149 4.55884 20.8234 4.52098 20.7425C4.48732 20.6574 4.43895 20.585 4.37585 20.5254C4.31275 20.4616 4.24123 20.4127 4.16131 20.3786C4.08138 20.3446 3.99725 20.3275 3.90891 20.3275H1.88971V21.6875H3.90891Z" fill="#FDFAF9"/>
<path d="M7.40972 23.9604C7.19518 23.9604 6.99116 23.92 6.79765 23.8391C6.60835 23.754 6.44219 23.6412 6.29916 23.5007C6.16034 23.356 6.04887 23.1878 5.96473 22.9963C5.88481 22.8005 5.84484 22.5941 5.84484 22.377V21.0107C5.84484 20.7936 5.88481 20.5893 5.96473 20.3978C6.04887 20.202 6.16034 20.0338 6.29916 19.8934C6.44219 19.7487 6.60835 19.6359 6.79765 19.555C6.99116 19.4699 7.19518 19.4273 7.40972 19.4273H8.76006C8.9746 19.4273 9.17652 19.4699 9.36582 19.555C9.55933 19.6359 9.72549 19.7487 9.86431 19.8934C10.0073 20.0338 10.1188 20.202 10.1987 20.3978C10.2829 20.5893 10.3249 20.7936 10.3249 21.0107V22.377C10.3249 22.5941 10.2829 22.8005 10.1987 22.9963C10.1188 23.1878 10.0073 23.356 9.86431 23.5007C9.72549 23.6412 9.55933 23.754 9.36582 23.8391C9.17652 23.92 8.9746 23.9604 8.76006 23.9604H7.40972ZM7.1447 20.3786C7.06898 20.4169 6.99957 20.468 6.93647 20.5318C6.87337 20.5957 6.82289 20.668 6.78503 20.7489C6.74717 20.8255 6.72824 20.9128 6.72824 21.0107V22.377C6.72824 22.4706 6.74507 22.5579 6.77872 22.6388C6.81658 22.7196 6.86706 22.792 6.93016 22.8558C6.99326 22.9154 7.06477 22.9623 7.1447 22.9963C7.22883 23.0304 7.31718 23.0474 7.40972 23.0474H8.76006C8.94936 23.0474 9.10711 22.9835 9.23331 22.8558C9.35951 22.7282 9.42261 22.5685 9.42261 22.377V21.0107C9.42261 20.917 9.40578 20.8298 9.37213 20.7489C9.33848 20.6638 9.2901 20.5893 9.227 20.5254C9.16811 20.4616 9.09869 20.4127 9.01877 20.3786C8.93884 20.3403 8.85261 20.3211 8.76006 20.3211H7.40972C7.31297 20.3211 7.22463 20.3403 7.1447 20.3786Z" fill="#FDFAF9"/>
<path d="M15.0327 19.887C15.1757 20.036 15.2872 20.2062 15.3671 20.3978C15.447 20.5893 15.487 20.7957 15.487 21.0171C15.487 21.2341 15.4449 21.4385 15.3608 21.63C15.2809 21.8215 15.1694 21.9897 15.0264 22.1344C14.8876 22.2791 14.7214 22.394 14.5279 22.4792C14.3386 22.56 14.1346 22.6005 13.9158 22.6005H11.8966V23.9604H11.0069V19.4273H13.9158C14.1346 19.4273 14.3386 19.4677 14.5279 19.5486C14.7172 19.6295 14.8854 19.7423 15.0327 19.887ZM13.9158 21.6875C14.1093 21.6875 14.2692 21.6236 14.3954 21.4959C14.5216 21.3682 14.5847 21.2086 14.5847 21.0171C14.5847 20.9149 14.5657 20.8234 14.5279 20.7425C14.4942 20.6574 14.4459 20.585 14.3828 20.5254C14.3197 20.4616 14.2481 20.4127 14.1682 20.3786C14.0883 20.3446 14.0042 20.3275 13.9158 20.3275H11.8966V21.6875H13.9158Z" fill="#FDFAF9"/>
<path d="M19.9406 19.887C20.0836 20.036 20.1951 20.2062 20.275 20.3978C20.355 20.5893 20.3949 20.7957 20.3949 21.0171C20.3949 21.2341 20.3529 21.4385 20.2687 21.63C20.1888 21.8215 20.0773 21.9897 19.9343 22.1344C19.7955 22.2791 19.6293 22.394 19.4358 22.4792C19.2465 22.56 19.0425 22.6005 18.8238 22.6005H16.8046V23.9604H15.9148V19.4273H18.8238C19.0425 19.4273 19.2465 19.4677 19.4358 19.5486C19.6251 19.6295 19.7934 19.7423 19.9406 19.887ZM18.8238 21.6875C19.0173 21.6875 19.1771 21.6236 19.3033 21.4959C19.4295 21.3682 19.4926 21.2086 19.4926 21.0171C19.4926 20.9149 19.4737 20.8234 19.4358 20.7425C19.4022 20.6574 19.3538 20.585 19.2907 20.5254C19.2276 20.4616 19.1561 20.4127 19.0762 20.3786C18.9962 20.3446 18.9121 20.3275 18.8238 20.3275H16.8046V21.6875H18.8238Z" fill="#FDFAF9"/>
<path d="M25 19.4145L23.208 21.8088V23.9604H22.3119V21.8088L20.5325 19.4145H21.662L22.7789 20.8958L23.8642 19.4145H25Z" fill="#FDFAF9"/>
<path d="M3.45096 26.8153V27.7219H5.33765V28.6349H3.45096V30.4545H2.58018V25.9151H7.06659V26.8153H3.45096Z" fill="#FDFAF9"/>
<path d="M7.40802 25.9087H8.29772V30.4545H7.40802V25.9087Z" fill="#FDFAF9"/>
<path d="M13.5243 30.4545H9.03156V25.9087H9.92126V29.5352H13.5243V30.4545Z" fill="#FDFAF9"/>
<path d="M18.3581 25.9151V30.4545H17.4558V27.2048L16.7364 27.9198H16.7554L16.1118 28.5583L14.7551 27.2048V30.4545H13.8717V25.9151H14.774L16.1118 27.275L17.4558 25.9151H18.3581Z" fill="#FDFAF9"/>
<path d="M22.1857 27.7219C22.3665 27.7219 22.539 27.7581 22.7031 27.8305C22.8671 27.8986 23.0102 27.9943 23.1321 28.1178C23.2541 28.2369 23.3509 28.3795 23.4224 28.5455C23.4981 28.7115 23.536 28.8924 23.536 29.0882C23.536 29.2883 23.4981 29.4713 23.4224 29.6373C23.3509 29.8033 23.252 29.948 23.1258 30.0715C23.0038 30.1906 22.8608 30.2843 22.6968 30.3524C22.5369 30.4205 22.3665 30.4545 22.1857 30.4545H20.3684C20.1791 30.4545 20.0024 30.4205 19.8383 30.3524C19.6743 30.28 19.5312 30.1821 19.4093 30.0587C19.2873 29.9353 19.1905 29.7905 19.119 29.6245C19.0517 29.4585 19.018 29.2798 19.018 29.0882H19.9141C19.9141 29.2074 19.9603 29.3138 20.0529 29.4075C20.1454 29.5011 20.2506 29.5479 20.3684 29.5479H22.1857C22.2319 29.5479 22.2803 29.5373 22.3308 29.516C22.3855 29.4947 22.4339 29.4649 22.4759 29.4266C22.5222 29.3841 22.56 29.3351 22.5895 29.2798C22.6189 29.2202 22.6337 29.1563 22.6337 29.0882C22.6337 28.952 22.5853 28.8435 22.4885 28.7626C22.396 28.6775 22.295 28.6349 22.1857 28.6349H20.3684C20.1749 28.6349 19.994 28.5987 19.8257 28.5264C19.6617 28.454 19.5186 28.3561 19.3966 28.2327C19.2789 28.105 19.1863 27.9603 19.119 27.7985C19.0517 27.6325 19.018 27.4559 19.018 27.2686C19.018 27.0728 19.0538 26.8919 19.1253 26.7259C19.1968 26.5599 19.2936 26.4173 19.4156 26.2981C19.5376 26.1747 19.6806 26.0789 19.8447 26.0108C20.0087 25.9385 20.1833 25.9023 20.3684 25.9023H22.1857C22.3623 25.9023 22.5327 25.9363 22.6968 26.0044C22.8608 26.0725 23.0038 26.1683 23.1258 26.2918C23.252 26.4109 23.3509 26.5535 23.4224 26.7195C23.4981 26.8855 23.536 27.0686 23.536 27.2686H22.6337C22.6337 27.2005 22.6189 27.1367 22.5895 27.0771C22.5642 27.0175 22.5285 26.9685 22.4822 26.9302C22.4402 26.8877 22.3918 26.8557 22.3371 26.8344C22.2866 26.8089 22.2361 26.7961 22.1857 26.7961H20.3684C20.3095 26.7961 20.2527 26.811 20.198 26.8408C20.1433 26.8664 20.0949 26.9026 20.0529 26.9494C20.0108 26.9919 19.9772 27.0409 19.9519 27.0962C19.9267 27.1516 19.9141 27.209 19.9141 27.2686C19.9141 27.392 19.9582 27.4985 20.0466 27.5878C20.1391 27.6772 20.2464 27.7219 20.3684 27.7219H22.1857Z" fill="#FDFAF9"/>
</svg>
