<svg width="44" height="32" viewBox="0 0 44 32" fill="none" xmlns="http://www.w3.org/2000/svg">
<path d="M13.0141 8.33408H11.3367L10.5963 6.85923L9.67084 8.33408H8.005L6.46641 0H8.15539L9.28908 5.82917L10.5963 3.53496L11.9151 5.82917L13.0488 0H14.7378L13.0141 8.33408Z" fill="#FDFAF9"/>
<path d="M15.8315 0H17.4626V8.33408H15.8315V0Z" fill="#FDFAF9"/>
<path d="M27.0446 8.33408H18.808V0H20.4391V6.64854H27.0446V8.33408Z" fill="#FDFAF9"/>
<path d="M35.0391 0.889593C35.3013 1.1393 35.5057 1.43974 35.6522 1.79089C35.8064 2.13424 35.8836 2.51661 35.8836 2.938V5.4312C35.8836 5.82917 35.8064 6.20764 35.6522 6.5666C35.4979 6.91776 35.2897 7.22599 35.0275 7.49131C34.773 7.74882 34.4722 7.95561 34.1252 8.11168C33.7781 8.25995 33.4079 8.33408 33.0146 8.33408H27.6816V0H33.0146C33.4079 0 33.7781 0.0819361 34.1252 0.245808C34.4722 0.409681 34.7769 0.624276 35.0391 0.889593ZM34.2524 2.938C34.2524 2.77413 34.2177 2.61806 34.1483 2.46979C34.0789 2.31372 33.9864 2.18106 33.8707 2.07182C33.7627 1.95476 33.6316 1.86112 33.4773 1.79089C33.3308 1.72066 33.1766 1.68554 33.0146 1.68554H29.3243V6.67195H33.0146C33.1843 6.67195 33.3424 6.64073 33.4889 6.57831C33.6432 6.50808 33.7743 6.41443 33.8822 6.29738C33.9979 6.18033 34.0866 6.04767 34.1483 5.89941C34.2177 5.75114 34.2524 5.59507 34.2524 5.4312V2.938Z" fill="#FDFAF9"/>
<path d="M7.38059 12.6261C7.64281 12.8993 7.84718 13.2114 7.99371 13.5626C8.14024 13.9137 8.21351 14.2922 8.21351 14.698C8.21351 15.0959 8.13639 15.4705 7.98214 15.8217C7.83561 16.1728 7.63124 16.481 7.36902 16.7464C7.11452 17.0117 6.80989 17.2224 6.45513 17.3784C6.10808 17.5267 5.73403 17.6008 5.33299 17.6008H1.63113V20.0941H0V11.7834H5.33299C5.73403 11.7834 6.10808 11.8575 6.45513 12.0058C6.80218 12.154 7.11066 12.3608 7.38059 12.6261ZM5.33299 15.927C5.68776 15.927 5.98082 15.8099 6.21219 15.5758C6.44355 15.3417 6.55924 15.0491 6.55924 14.698C6.55924 14.5107 6.52454 14.3429 6.45513 14.1946C6.39343 14.0386 6.30474 13.9059 6.18905 13.7967C6.07337 13.6796 5.94226 13.5899 5.79573 13.5274C5.6492 13.465 5.49495 13.4338 5.33299 13.4338H1.63113V15.927H5.33299Z" fill="#FDFAF9"/>
<path d="M11.7512 20.0941C11.3578 20.0941 10.9838 20.0199 10.629 19.8717C10.282 19.7156 9.97735 19.5088 9.71513 19.2513C9.46063 18.986 9.25626 18.6777 9.10201 18.3266C8.95548 17.9676 8.88222 17.5891 8.88222 17.1912V14.6863C8.88222 14.2883 8.95548 13.9137 9.10201 13.5626C9.25626 13.2036 9.46063 12.8954 9.71513 12.6378C9.97735 12.3725 10.282 12.1657 10.629 12.0175C10.9838 11.8614 11.3578 11.7834 11.7512 11.7834H14.2268C14.6201 11.7834 14.9903 11.8614 15.3373 12.0175C15.6921 12.1657 15.9967 12.3725 16.2512 12.6378C16.5134 12.8954 16.7178 13.2036 16.8644 13.5626C17.0186 13.9137 17.0957 14.2883 17.0957 14.6863V17.1912C17.0957 17.5891 17.0186 17.9676 16.8644 18.3266C16.7178 18.6777 16.5134 18.986 16.2512 19.2513C15.9967 19.5088 15.6921 19.7156 15.3373 19.8717C14.9903 20.0199 14.6201 20.0941 14.2268 20.0941H11.7512ZM11.2653 13.5274C11.1265 13.5977 10.9992 13.6913 10.8835 13.8084C10.7679 13.9254 10.6753 14.0581 10.6059 14.2063C10.5365 14.3468 10.5018 14.5068 10.5018 14.6863V17.1912C10.5018 17.3628 10.5326 17.5228 10.5943 17.6711C10.6637 17.8193 10.7563 17.952 10.872 18.0691C10.9876 18.1783 11.1188 18.2641 11.2653 18.3266C11.4195 18.389 11.5815 18.4202 11.7512 18.4202H14.2268C14.5738 18.4202 14.863 18.3032 15.0944 18.0691C15.3258 17.835 15.4414 17.5423 15.4414 17.1912V14.6863C15.4414 14.5146 15.4106 14.3546 15.3489 14.2063C15.2872 14.0503 15.1985 13.9137 15.0828 13.7967C14.9749 13.6796 14.8476 13.5899 14.7011 13.5274C14.5545 13.4572 14.3964 13.4221 14.2268 13.4221H11.7512C11.5738 13.4221 11.4118 13.4572 11.2653 13.5274Z" fill="#FDFAF9"/>
<path d="M25.7266 12.6261C25.9888 12.8993 26.1932 13.2114 26.3397 13.5626C26.4862 13.9137 26.5595 14.2922 26.5595 14.698C26.5595 15.0959 26.4824 15.4705 26.3281 15.8217C26.1816 16.1728 25.9772 16.481 25.715 16.7464C25.4605 17.0117 25.1559 17.2224 24.8011 17.3784C24.4541 17.5267 24.08 17.6008 23.679 17.6008H19.9771V20.0941H18.346V11.7834H23.679C24.08 11.7834 24.4541 11.8575 24.8011 12.0058C25.1482 12.154 25.4567 12.3608 25.7266 12.6261ZM23.679 15.927C24.0338 15.927 24.3268 15.8099 24.5582 15.5758C24.7896 15.3417 24.9052 15.0491 24.9052 14.698C24.9052 14.5107 24.8705 14.3429 24.8011 14.1946C24.7394 14.0386 24.6507 13.9059 24.535 13.7967C24.4194 13.6796 24.2883 13.5899 24.1417 13.5274C23.9952 13.465 23.841 13.4338 23.679 13.4338H19.9771V15.927H23.679Z" fill="#FDFAF9"/>
<path d="M34.7245 12.6261C34.9867 12.8993 35.1911 13.2114 35.3376 13.5626C35.4841 13.9137 35.5574 14.2922 35.5574 14.698C35.5574 15.0959 35.4803 15.4705 35.326 15.8217C35.1795 16.1728 34.9751 16.481 34.7129 16.7464C34.4584 17.0117 34.1538 17.2224 33.799 17.3784C33.452 17.5267 33.0779 17.6008 32.6769 17.6008H28.975V20.0941H27.3439V11.7834H32.6769C33.0779 11.7834 33.452 11.8575 33.799 12.0058C34.1461 12.154 34.4545 12.3608 34.7245 12.6261ZM32.6769 15.927C33.0316 15.927 33.3247 15.8099 33.5561 15.5758C33.7874 15.3417 33.9031 15.0491 33.9031 14.698C33.9031 14.5107 33.8684 14.3429 33.799 14.1946C33.7373 14.0386 33.6486 13.9059 33.5329 13.7967C33.4172 13.6796 33.2861 13.5899 33.1396 13.5274C32.9931 13.465 32.8388 13.4338 32.6769 13.4338H28.975V15.927H32.6769Z" fill="#FDFAF9"/>
<path d="M44 11.76L40.7146 16.1494V20.0941H39.0719V16.1494L35.8096 11.76H37.8804L39.9279 14.4756L41.9177 11.76H44Z" fill="#FDFAF9"/>
<path d="M4.49343 25.328V26.9902H7.95236V28.664H4.49343V32H2.897V23.6776H11.1221V25.328H4.49343Z" fill="#FDFAF9"/>
<path d="M11.748 23.6659H13.3792V32H11.748V23.6659Z" fill="#FDFAF9"/>
<path d="M22.9612 32H14.7245V23.6659H16.3556V30.3145H22.9612V32Z" fill="#FDFAF9"/>
<path d="M31.8232 23.6776V32H30.1689V26.0421L28.8502 27.353H28.8849L27.7049 28.5236L25.2177 26.0421V32H23.5981V23.6776H25.2524L27.7049 26.1708L30.1689 23.6776H31.8232Z" fill="#FDFAF9"/>
<path d="M38.8404 26.9902C39.172 26.9902 39.4882 27.0565 39.789 27.1892C40.0897 27.314 40.3519 27.4896 40.5756 27.7159C40.7993 27.9344 40.9766 28.1958 41.1077 28.5001C41.2466 28.8045 41.316 29.1361 41.316 29.4951C41.316 29.8619 41.2466 30.1974 41.1077 30.5017C40.9766 30.8061 40.7954 31.0714 40.564 31.2977C40.3404 31.5162 40.0782 31.6879 39.7774 31.8127C39.4843 31.9376 39.172 32 38.8404 32H35.5087C35.1616 32 34.8377 31.9376 34.537 31.8127C34.2362 31.6801 33.974 31.5006 33.7503 31.2743C33.5267 31.048 33.3493 30.7827 33.2182 30.4783C33.0948 30.174 33.0331 29.8462 33.0331 29.4951H34.6758C34.6758 29.7136 34.7606 29.9087 34.9303 30.0804C35.0999 30.252 35.2928 30.3379 35.5087 30.3379H38.8404C38.9252 30.3379 39.0139 30.3184 39.1064 30.2793C39.2067 30.2403 39.2954 30.1857 39.3725 30.1155C39.4574 30.0374 39.5267 29.9477 39.5807 29.8462C39.6347 29.737 39.6617 29.6199 39.6617 29.4951C39.6617 29.2454 39.573 29.0464 39.3957 28.8981C39.226 28.7421 39.0409 28.664 38.8404 28.664H35.5087C35.1539 28.664 34.8223 28.5977 34.5138 28.465C34.213 28.3324 33.9508 28.1529 33.7272 27.9266C33.5112 27.6925 33.3416 27.4272 33.2182 27.1306C33.0948 26.8263 33.0331 26.5025 33.0331 26.1591C33.0331 25.8002 33.0986 25.4685 33.2297 25.1642C33.3608 24.8598 33.5382 24.5984 33.7619 24.3799C33.9855 24.1536 34.2478 23.978 34.5485 23.8532C34.8493 23.7205 35.1694 23.6542 35.5087 23.6542H38.8404C39.1643 23.6542 39.4766 23.7166 39.7774 23.8415C40.0782 23.9663 40.3404 24.1419 40.564 24.3682C40.7954 24.5867 40.9766 24.8481 41.1077 25.1525C41.2466 25.4568 41.316 25.7923 41.316 26.1591H39.6617C39.6617 26.0343 39.6347 25.9172 39.5807 25.808C39.5344 25.6987 39.4689 25.609 39.3841 25.5387C39.307 25.4607 39.2183 25.4022 39.118 25.3632C39.0255 25.3163 38.9329 25.2929 38.8404 25.2929H35.5087C35.4007 25.2929 35.2966 25.3202 35.1964 25.3749C35.0961 25.4217 35.0074 25.488 34.9303 25.5739C34.8532 25.6519 34.7915 25.7416 34.7452 25.8431C34.6989 25.9445 34.6758 26.0499 34.6758 26.1591C34.6758 26.3854 34.7568 26.5805 34.9187 26.7444C35.0884 26.9082 35.285 26.9902 35.5087 26.9902H38.8404Z" fill="#FDFAF9"/>
</svg>
