<svg width="41" height="20" viewBox="0 0 41 20" fill="none" xmlns="http://www.w3.org/2000/svg">
<path d="M2.49191 0H37.5405C38.932 0 40.0324 1.13269 40.0324 2.49191V17.5081C40.0324 18.8997 38.8997 20 37.5405 20H2.49191C1.10032 20 0 18.8673 0 17.5081V2.49191C0 1.13269 1.13269 0 2.49191 0Z" fill="#010700"/>
<path d="M5.01562 15.6636H8.12242V4.36914H5.01562V15.6636Z" fill="#FDFAF9"/>
<path d="M14.8197 4.36914L14.1077 9.64422L13.687 6.79632C13.5576 5.89018 13.4281 5.08111 13.331 4.4015H9.38281V15.6636H12.0365V8.22027L13.1692 15.6636H15.0462L16.1142 8.05846V15.6636H18.7679V4.36914H14.8197Z" fill="#FDFAF9"/>
<path d="M20.0312 15.6636V4.36914H24.918C26.0183 4.36914 26.9245 5.24293 26.9245 6.34325V13.6248C26.9245 14.7251 26.0183 15.5989 24.918 15.5989H20.0312V15.6636ZM23.6882 6.40798C23.5588 6.34325 23.3322 6.31089 22.9762 6.31089V13.6895C23.4293 13.6895 23.7206 13.5924 23.8177 13.4306C23.9147 13.2688 23.9795 12.8157 23.9795 12.039V7.70247C23.9795 7.18467 23.9471 6.86105 23.9147 6.7316C23.8824 6.56979 23.8177 6.4727 23.6882 6.40798Z" fill="#FDFAF9"/>
<path d="M32.8164 7.21704H33.0106C34.1433 7.21704 35.0495 8.09082 35.0495 9.19115V13.7219C35.0495 14.8222 34.1433 15.696 33.0106 15.696H32.8164C32.1368 15.696 31.5219 15.3724 31.166 14.8546L30.9718 15.5342H28.1562V4.36914H31.166V7.99374C31.5543 7.5083 32.1368 7.21704 32.8164 7.21704ZM32.1692 12.6863V10.0326C32.1692 9.5795 32.1368 9.28823 32.0721 9.15878C32.0074 9.02933 31.7808 8.93225 31.619 8.93225C31.4572 8.93225 31.1983 8.99697 31.1336 9.12642V10.0326V12.7834V13.6572C31.1983 13.7866 31.4249 13.8513 31.619 13.8513C31.7808 13.8513 32.0397 13.7866 32.0721 13.6572C32.1692 13.5277 32.1692 13.2041 32.1692 12.6863Z" fill="#FDFAF9"/>
</svg>
