<svg width="21" height="20" viewBox="0 0 21 20" fill="none" xmlns="http://www.w3.org/2000/svg">
<path d="M17.211 17.0413H14.2181V12.4004C14.2181 11.2937 14.1981 9.86912 12.6614 9.86912C11.1026 9.86912 10.8641 11.0749 10.8641 12.3199V17.041H7.87114V7.49741H10.7444V8.80165H10.7846C11.0721 8.31485 11.4877 7.91439 11.9869 7.64291C12.4861 7.37143 13.0503 7.23911 13.6195 7.26003C16.653 7.26003 17.2123 9.23567 17.2123 11.8059L17.211 17.0413ZM4.4941 6.19287C4.15058 6.19293 3.81476 6.09213 3.5291 5.90321C3.24344 5.71429 3.02079 5.44574 2.88928 5.13153C2.75776 4.81731 2.7233 4.47153 2.79025 4.13792C2.85721 3.80431 3.02258 3.49785 3.26544 3.2573C3.5083 3.01675 3.81774 2.8529 4.15465 2.78649C4.49155 2.72007 4.84077 2.75406 5.15816 2.88417C5.47555 3.01428 5.74685 3.23465 5.93775 3.51743C6.12865 3.8002 6.23058 4.13268 6.23064 4.47282C6.23068 4.69866 6.18579 4.92229 6.09854 5.13095C6.01129 5.33962 5.88341 5.52922 5.72215 5.68895C5.5609 5.84867 5.36944 5.97538 5.15873 6.06184C4.94803 6.1483 4.72219 6.19282 4.4941 6.19287ZM5.99057 17.0413H2.99451V7.49741H5.99057V17.0413ZM18.7031 0.00136263H1.49055C1.09988 -0.00300274 0.723414 0.146386 0.44392 0.416702C0.164427 0.687018 0.004768 1.05614 0 1.44297V18.5567C0.00460481 18.9438 0.16417 19.3131 0.443654 19.5837C0.723138 19.8543 1.09968 20.004 1.49055 19.9999H18.7031C19.0948 20.0047 19.4724 19.8555 19.753 19.5849C20.0336 19.3143 20.1942 18.9445 20.1996 18.5567V1.44174C20.194 1.05414 20.0333 0.684596 19.7527 0.414287C19.4721 0.143978 19.0946 -0.00498453 18.7031 0.000127351" fill="black"/>
</svg>
