<svg width="20" height="20" viewBox="0 0 20 20" fill="none" xmlns="http://www.w3.org/2000/svg">
<path d="M0.701411 9.23068L19.298 9.23068C19.5816 9.23068 19.838 9.41837 19.9466 9.70529C20.0552 9.99298 19.9952 10.3237 19.7944 10.5437L11.374 19.7744C11.0997 20.0752 10.6561 20.0752 10.3819 19.7744C10.1076 19.4737 10.1076 18.9875 10.3819 18.6867L17.6038 10.7691L0.702126 10.7691C0.313565 10.7691 2.68466e-06 10.4245 2.71912e-06 9.9999C2.75359e-06 9.57529 0.313565 9.23068 0.701411 9.23068Z" fill="#C1FF00"/>
<path d="M10.8752 0.000933484C11.0544 0.000933502 11.2344 0.0763172 11.3716 0.226315L16.9857 6.3801C17.26 6.68087 17.26 7.16702 16.9857 7.46778C16.7114 7.76855 16.2679 7.76855 15.9936 7.46778L10.3795 1.314C10.1052 1.01323 10.1052 0.527082 10.3795 0.226315C10.5159 0.0763171 10.6959 0.000933465 10.8752 0.000933484Z" fill="#C1FF00"/>
</svg>
