<svg width="20" height="16" viewBox="0 0 20 16" fill="none" xmlns="http://www.w3.org/2000/svg">
<path fill-rule="evenodd" clip-rule="evenodd" d="M7.95926 2.13672H17.0906L9.99881 13.083L6.45292 7.60938L2.90653 2.13672H5.55594L4.13114 0H0.998814C0.816685 0.000976562 0.637974 0.0546875 0.482212 0.155273C0.32645 0.256836 0.199009 0.401367 0.114536 0.573242C0.0300636 0.746094 -0.00899893 0.939453 0.00174326 1.13379C0.0124854 1.32812 0.072544 1.51562 0.175571 1.67676L4.67557 8.62207L9.17557 15.5684C9.54862 16.1436 10.4466 16.1436 10.8206 15.5684L19.8206 1.67676C19.9251 1.5166 19.9861 1.3291 19.9973 1.13379C20.0008 1.07715 19.9998 1.02051 19.9944 0.963867C19.9822 0.827148 19.9451 0.694336 19.885 0.572266C19.846 0.492188 19.7976 0.418945 19.7415 0.352539C19.6765 0.275391 19.6009 0.208008 19.5169 0.15332C19.4471 0.108398 19.3723 0.0732422 19.2947 0.0478516C19.1995 0.0166016 19.0994 0 18.9988 0H6.53495L7.95926 2.13672Z" fill="#C1FF00"/>
</svg>
