<svg width="32" height="32" viewBox="0 0 32 32" fill="none" xmlns="http://www.w3.org/2000/svg">
<path d="M30.8777 14.7691L1.12315 14.7691C0.669444 14.7691 0.25917 15.0694 0.0854604 15.5285C-0.088249 15.9888 0.00774846 16.518 0.328882 16.87L13.8016 31.6391C14.2405 32.1203 14.9502 32.1203 15.389 31.6391C15.8279 31.1579 15.8279 30.38 15.389 29.8988L3.83393 17.2306L30.8766 17.2306C31.4983 17.2306 32 16.6792 32 15.9998C32 15.3205 31.4983 14.7691 30.8777 14.7691Z" fill="#C1FF00"/>
<path d="M14.5962 0.00071137C14.3094 0.000711399 14.0214 0.121325 13.802 0.361322L4.81937 10.2074C4.38052 10.6886 4.38052 11.4664 4.81937 11.9477C5.25821 12.4289 5.96791 12.4289 6.40675 11.9477L15.3894 2.10161C15.8282 1.62039 15.8282 0.842548 15.3894 0.361322C15.1711 0.121325 14.8831 0.000711341 14.5962 0.00071137Z" fill="#C1FF00"/>
</svg>
