<svg width="32" height="32" viewBox="0 0 32 32" fill="none" xmlns="http://www.w3.org/2000/svg">
<path d="M1.12226 17.2309L30.8769 17.2309C31.3306 17.2309 31.7408 16.9306 31.9145 16.4715C32.0882 16.0112 31.9923 15.482 31.6711 15.13L18.1984 0.360921C17.7595 -0.120305 17.0498 -0.120305 16.611 0.360921C16.1721 0.842147 16.1721 1.61999 16.611 2.10121L28.1661 14.7694L1.1234 14.7694C0.501704 14.7694 3.15104e-06 15.3208 3.20619e-06 16.0002C3.26134e-06 16.6795 0.501705 17.2309 1.12226 17.2309Z" fill="#C1FF00"/>
<path d="M17.4038 31.9993C17.6906 31.9993 17.9786 31.8787 18.198 31.6387L27.1806 21.7926C27.6195 21.3114 27.6195 20.5336 27.1806 20.0523C26.7418 19.5711 26.0321 19.5711 25.5932 20.0523L16.6106 29.8984C16.1718 30.3796 16.1718 31.1575 16.6106 31.6387C16.8289 31.8787 17.1169 31.9993 17.4038 31.9993Z" fill="#C1FF00"/>
</svg>
