<svg width="18" height="24" viewBox="0 0 18 24" fill="none" xmlns="http://www.w3.org/2000/svg">
<path fill-rule="evenodd" clip-rule="evenodd" d="M15.5957 14.4189L15.5957 3.4903L3.28193 12.001L9.4388 16.2563L15.5957 20.5117L15.5957 17.364L18 19.0738L18 22.8013C17.9993 23.02 17.9389 23.2344 17.8252 23.4214C17.7116 23.6083 17.549 23.7608 17.355 23.8624C17.161 23.964 16.9429 24.0108 16.7242 23.9979C16.5055 23.985 16.2944 23.9127 16.1138 23.789L8.29975 18.3888L0.485701 12.9886C-0.162265 12.541 -0.162265 11.4634 0.485701 11.0145L16.1138 0.214191C16.2941 0.0891761 16.5052 0.0158653 16.7243 0.00222201C16.9433 -0.0114212 17.1619 0.0351257 17.3564 0.136805C17.5508 0.238485 17.7136 0.391407 17.8271 0.57896C17.9405 0.766512 18.0003 0.98152 18 1.20062L18 16.1287L15.5957 14.4189Z" fill="#FDFAF9"/>
</svg>
