<svg width="12" height="16" viewBox="0 0 12 16" fill="none" xmlns="http://www.w3.org/2000/svg">
<path fill-rule="evenodd" clip-rule="evenodd" d="M1.60288 9.61211L1.60288 2.32687L9.81205 8.00065L5.70746 10.8375L1.60288 13.6744L1.60288 11.5755L8.42254e-07 12.7153L9.50901e-07 15.2009C0.000458455 15.3467 0.0407421 15.4896 0.116513 15.6142C0.192284 15.7389 0.300673 15.8405 0.430016 15.9083C0.559359 15.976 0.704757 16.0072 0.850557 15.9986C0.996358 15.99 1.13704 15.9418 1.25746 15.8593L6.46683 12.2592L11.6762 8.65907C12.1082 8.36066 12.1082 7.64224 11.6762 7.34303L1.25746 0.142794C1.13729 0.0594511 0.996538 0.0105772 0.850495 0.00148197C0.704451 -0.00761417 0.558704 0.0234174 0.429088 0.0912037C0.299471 0.15899 0.190942 0.260939 0.115294 0.385973C0.0396454 0.511008 -0.00022927 0.654346 3.21436e-07 0.800415L7.56432e-07 10.752L1.60288 9.61211Z" fill="#DBDAD8"/>
</svg>
