<svg width="10" height="16" viewBox="0 0 10 16" fill="none" xmlns="http://www.w3.org/2000/svg">
<g id="simple-arrow-icon">
<path id="Vector" d="M9.27109 7.66856L1.86109 0.266064C1.79386 0.187553 1.71112 0.123787 1.61807 0.0787698C1.52502 0.0337524 1.42367 0.00845475 1.32038 0.00446513C1.21709 0.000475514 1.11409 0.01788 1.01785 0.0555859C0.921605 0.0932918 0.834195 0.150485 0.761104 0.223576C0.688012 0.296667 0.630819 0.384078 0.593113 0.480322C0.555407 0.576566 0.538003 0.679565 0.541992 0.782854C0.545981 0.886143 0.57128 0.987493 0.616297 1.08054C0.661315 1.17359 0.72508 1.25633 0.803591 1.32356L7.59859 8.11856L0.998591 14.7186C0.858903 14.8591 0.780497 15.0492 0.780497 15.2473C0.780497 15.4455 0.858903 15.6355 0.998591 15.7761C1.13911 15.9158 1.3292 15.9942 1.52734 15.9942C1.72548 15.9942 1.91557 15.9158 2.05609 15.7761L9.27109 8.56856C9.39017 8.44907 9.45703 8.28726 9.45703 8.11856C9.45703 7.94987 9.39017 7.78805 9.27109 7.66856Z" fill="#010700"/>
</g>
</svg>
