<svg width="10" height="16" viewBox="0 0 10 16" fill="none" xmlns="http://www.w3.org/2000/svg">
<g id="simple-arrow-icon">
<path id="Vector" d="M0.728909 7.66856L8.13891 0.266064C8.20614 0.187553 8.28888 0.123787 8.38193 0.0787698C8.47498 0.0337524 8.57633 0.00845475 8.67962 0.00446513C8.78291 0.000475514 8.88591 0.01788 8.98215 0.0555859C9.07839 0.0932918 9.1658 0.150485 9.2389 0.223576C9.31199 0.296667 9.36918 0.384078 9.40689 0.480322C9.44459 0.576566 9.462 0.679565 9.45801 0.782854C9.45402 0.886143 9.42872 0.987493 9.3837 1.08054C9.33869 1.17359 9.27492 1.25633 9.19641 1.32356L2.40141 8.11856L9.00141 14.7186C9.1411 14.8591 9.2195 15.0492 9.2195 15.2473C9.2195 15.4455 9.1411 15.6355 9.00141 15.7761C8.86089 15.9158 8.6708 15.9942 8.47266 15.9942C8.27452 15.9942 8.08443 15.9158 7.94391 15.7761L0.728909 8.56856C0.609831 8.44907 0.542969 8.28726 0.542969 8.11856C0.542969 7.94987 0.609831 7.78805 0.728909 7.66856Z" fill="#010700"/>
</g>
</svg>
