<svg width="23" height="16" viewBox="0 0 23 16" fill="none" xmlns="http://www.w3.org/2000/svg">
<path d="M22.3117 2.49845C22.0496 1.51497 21.2775 0.740517 20.297 0.477678C18.5199 9.53674e-07 11.3939 0 11.3939 0C11.3939 0 4.26797 9.53674e-07 2.49086 0.477678C1.51042 0.740517 0.738218 1.51497 0.47618 2.49845C0 4.28094 0 8 0 8C0 8 0 11.719 0.47618 13.5017C0.738218 14.485 1.51042 15.2595 2.49086 15.5224C4.26797 16 11.3939 16 11.3939 16C11.3939 16 18.5199 16 20.297 15.5224C21.2775 15.2595 22.0496 14.485 22.3117 13.5017C22.7879 11.719 22.7879 8 22.7879 8C22.7879 8 22.7879 4.28094 22.3117 2.49845Z" fill="black"/>
<path d="M9.0625 11.377L15.0184 8.0005L9.0625 4.62373V11.377Z" fill="white"/>
</svg>
